<svg width="169" height="86" viewBox="0 0 169 86" fill="none" xmlns="http://www.w3.org/2000/svg">
<path d="M7.51172 85.5586L3.38672 72.1172H3.28125C3.29688 72.4375 3.32031 72.9219 3.35156 73.5703C3.39062 74.2109 3.42578 74.8945 3.45703 75.6211C3.48828 76.3477 3.50391 77.0039 3.50391 77.5898V85.5586H0.257812V68.4258H5.20312L9.25781 81.5273H9.32812L13.6289 68.4258H18.5742V85.5586H15.1875V77.4492C15.1875 76.9102 15.1953 76.2891 15.2109 75.5859C15.2344 74.8828 15.2617 74.2148 15.293 73.582C15.3242 72.9414 15.3477 72.4609 15.3633 72.1406H15.2578L10.8398 85.5586H7.51172ZM28.0195 72.2109C29.2305 72.2109 30.2734 72.4453 31.1484 72.9141C32.0234 73.375 32.6992 74.0469 33.1758 74.9297C33.6523 75.8125 33.8906 76.8906 33.8906 78.1641V79.8984H25.4414C25.4805 80.9062 25.7812 81.6992 26.3438 82.2773C26.9141 82.8477 27.7031 83.1328 28.7109 83.1328C29.5469 83.1328 30.3125 83.0469 31.0078 82.875C31.7031 82.7031 32.418 82.4453 33.1523 82.1016V84.8672C32.5039 85.1875 31.8242 85.4219 31.1133 85.5703C30.4102 85.7188 29.5547 85.793 28.5469 85.793C27.2344 85.793 26.0703 85.5508 25.0547 85.0664C24.0469 84.582 23.2539 83.8438 22.6758 82.8516C22.1055 81.8594 21.8203 80.6094 21.8203 79.1016C21.8203 77.5703 22.0781 76.2969 22.5938 75.2812C23.1172 74.2578 23.8438 73.4922 24.7734 72.9844C25.7031 72.4688 26.7852 72.2109 28.0195 72.2109ZM28.043 74.7539C27.3477 74.7539 26.7695 74.9766 26.3086 75.4219C25.8555 75.8672 25.5938 76.5664 25.5234 77.5195H30.5391C30.5312 76.9883 30.4336 76.5156 30.2461 76.1016C30.0664 75.6875 29.793 75.3594 29.4258 75.1172C29.0664 74.875 28.6055 74.7539 28.043 74.7539ZM44.2383 72.2109C45.6367 72.2109 46.7617 72.5938 47.6133 73.3594C48.4648 74.1172 48.8906 75.3359 48.8906 77.0156V85.5586H45.3164V77.9062C45.3164 76.9688 45.1445 76.2617 44.8008 75.7852C44.4648 75.3086 43.9336 75.0703 43.207 75.0703C42.1133 75.0703 41.3672 75.4414 40.9688 76.1836C40.5703 76.9258 40.3711 77.9961 40.3711 79.3945V85.5586H36.7969V72.457H39.5273L40.0078 74.1328H40.207C40.4883 73.6797 40.8359 73.3125 41.25 73.0312C41.6719 72.75 42.1367 72.543 42.6445 72.4102C43.1602 72.2773 43.6914 72.2109 44.2383 72.2109ZM58.0898 82.9453C58.4805 82.9453 58.8594 82.9062 59.2266 82.8281C59.6016 82.75 59.9727 82.6523 60.3398 82.5352V85.1953C59.957 85.3672 59.4805 85.5078 58.9102 85.6172C58.3477 85.7344 57.7305 85.793 57.0586 85.793C56.2773 85.793 55.5742 85.668 54.9492 85.418C54.332 85.1602 53.8438 84.7188 53.4844 84.0938C53.1328 83.4609 52.957 82.582 52.957 81.457V75.1406H51.2461V73.6289L53.2148 72.4336L54.2461 69.668H56.5312V72.457H60.1992V75.1406H56.5312V81.457C56.5312 81.957 56.6719 82.332 56.9531 82.582C57.2422 82.8242 57.6211 82.9453 58.0898 82.9453ZM68.4023 72.2109C69.6133 72.2109 70.6562 72.4453 71.5312 72.9141C72.4062 73.375 73.082 74.0469 73.5586 74.9297C74.0352 75.8125 74.2734 76.8906 74.2734 78.1641V79.8984H65.8242C65.8633 80.9062 66.1641 81.6992 66.7266 82.2773C67.2969 82.8477 68.0859 83.1328 69.0938 83.1328C69.9297 83.1328 70.6953 83.0469 71.3906 82.875C72.0859 82.7031 72.8008 82.4453 73.5352 82.1016V84.8672C72.8867 85.1875 72.207 85.4219 71.4961 85.5703C70.793 85.7188 69.9375 85.793 68.9297 85.793C67.6172 85.793 66.4531 85.5508 65.4375 85.0664C64.4297 84.582 63.6367 83.8438 63.0586 82.8516C62.4883 81.8594 62.2031 80.6094 62.2031 79.1016C62.2031 77.5703 62.4609 76.2969 62.9766 75.2812C63.5 74.2578 64.2266 73.4922 65.1562 72.9844C66.0859 72.4688 67.168 72.2109 68.4023 72.2109ZM68.4258 74.7539C67.7305 74.7539 67.1523 74.9766 66.6914 75.4219C66.2383 75.8672 65.9766 76.5664 65.9062 77.5195H70.9219C70.9141 76.9883 70.8164 76.5156 70.6289 76.1016C70.4492 75.6875 70.1758 75.3594 69.8086 75.1172C69.4492 74.875 68.9883 74.7539 68.4258 74.7539Z" fill="white"/>
<path d="M7.51172 85.5586L3.38672 72.1172H3.28125C3.29688 72.4375 3.32031 72.9219 3.35156 73.5703C3.39062 74.2109 3.42578 74.8945 3.45703 75.6211C3.48828 76.3477 3.50391 77.0039 3.50391 77.5898V85.5586H0.257812V68.4258H5.20312L9.25781 81.5273H9.32812L13.6289 68.4258H18.5742V85.5586H15.1875V77.4492C15.1875 76.9102 15.1953 76.2891 15.2109 75.5859C15.2344 74.8828 15.2617 74.2148 15.293 73.582C15.3242 72.9414 15.3477 72.4609 15.3633 72.1406H15.2578L10.8398 85.5586H7.51172ZM28.0195 72.2109C29.2305 72.2109 30.2734 72.4453 31.1484 72.9141C32.0234 73.375 32.6992 74.0469 33.1758 74.9297C33.6523 75.8125 33.8906 76.8906 33.8906 78.1641V79.8984H25.4414C25.4805 80.9062 25.7812 81.6992 26.3438 82.2773C26.9141 82.8477 27.7031 83.1328 28.7109 83.1328C29.5469 83.1328 30.3125 83.0469 31.0078 82.875C31.7031 82.7031 32.418 82.4453 33.1523 82.1016V84.8672C32.5039 85.1875 31.8242 85.4219 31.1133 85.5703C30.4102 85.7188 29.5547 85.793 28.5469 85.793C27.2344 85.793 26.0703 85.5508 25.0547 85.0664C24.0469 84.582 23.2539 83.8438 22.6758 82.8516C22.1055 81.8594 21.8203 80.6094 21.8203 79.1016C21.8203 77.5703 22.0781 76.2969 22.5938 75.2812C23.1172 74.2578 23.8438 73.4922 24.7734 72.9844C25.7031 72.4688 26.7852 72.2109 28.0195 72.2109ZM28.043 74.7539C27.3477 74.7539 26.7695 74.9766 26.3086 75.4219C25.8555 75.8672 25.5938 76.5664 25.5234 77.5195H30.5391C30.5312 76.9883 30.4336 76.5156 30.2461 76.1016C30.0664 75.6875 29.793 75.3594 29.4258 75.1172C29.0664 74.875 28.6055 74.7539 28.043 74.7539ZM44.2383 72.2109C45.6367 72.2109 46.7617 72.5938 47.6133 73.3594C48.4648 74.1172 48.8906 75.3359 48.8906 77.0156V85.5586H45.3164V77.9062C45.3164 76.9688 45.1445 76.2617 44.8008 75.7852C44.4648 75.3086 43.9336 75.0703 43.207 75.0703C42.1133 75.0703 41.3672 75.4414 40.9688 76.1836C40.5703 76.9258 40.3711 77.9961 40.3711 79.3945V85.5586H36.7969V72.457H39.5273L40.0078 74.1328H40.207C40.4883 73.6797 40.8359 73.3125 41.25 73.0312C41.6719 72.75 42.1367 72.543 42.6445 72.4102C43.1602 72.2773 43.6914 72.2109 44.2383 72.2109ZM58.0898 82.9453C58.4805 82.9453 58.8594 82.9062 59.2266 82.8281C59.6016 82.75 59.9727 82.6523 60.3398 82.5352V85.1953C59.957 85.3672 59.4805 85.5078 58.9102 85.6172C58.3477 85.7344 57.7305 85.793 57.0586 85.793C56.2773 85.793 55.5742 85.668 54.9492 85.418C54.332 85.1602 53.8438 84.7188 53.4844 84.0938C53.1328 83.4609 52.957 82.582 52.957 81.457V75.1406H51.2461V73.6289L53.2148 72.4336L54.2461 69.668H56.5312V72.457H60.1992V75.1406H56.5312V81.457C56.5312 81.957 56.6719 82.332 56.9531 82.582C57.2422 82.8242 57.6211 82.9453 58.0898 82.9453ZM68.4023 72.2109C69.6133 72.2109 70.6562 72.4453 71.5312 72.9141C72.4062 73.375 73.082 74.0469 73.5586 74.9297C74.0352 75.8125 74.2734 76.8906 74.2734 78.1641V79.8984H65.8242C65.8633 80.9062 66.1641 81.6992 66.7266 82.2773C67.2969 82.8477 68.0859 83.1328 69.0938 83.1328C69.9297 83.1328 70.6953 83.0469 71.3906 82.875C72.0859 82.7031 72.8008 82.4453 73.5352 82.1016V84.8672C72.8867 85.1875 72.207 85.4219 71.4961 85.5703C70.793 85.7188 69.9375 85.793 68.9297 85.793C67.6172 85.793 66.4531 85.5508 65.4375 85.0664C64.4297 84.582 63.6367 83.8438 63.0586 82.8516C62.4883 81.8594 62.2031 80.6094 62.2031 79.1016C62.2031 77.5703 62.4609 76.2969 62.9766 75.2812C63.5 74.2578 64.2266 73.4922 65.1562 72.9844C66.0859 72.4688 67.168 72.2109 68.4023 72.2109ZM68.4258 74.7539C67.7305 74.7539 67.1523 74.9766 66.6914 75.4219C66.2383 75.8672 65.9766 76.5664 65.9062 77.5195H70.9219C70.9141 76.9883 70.8164 76.5156 70.6289 76.1016C70.4492 75.6875 70.1758 75.3594 69.8086 75.1172C69.4492 74.875 68.9883 74.7539 68.4258 74.7539Z" fill="white"/>
<path d="M87.3281 85.5586H77.4609V68.4258H87.3281V71.4023H81.0938V75.1641H86.8945V78.1406H81.0938V82.5586H87.3281V85.5586ZM98.0742 72.2109C99.4727 72.2109 100.598 72.5938 101.449 73.3594C102.301 74.1172 102.727 75.3359 102.727 77.0156V85.5586H99.1523V77.9062C99.1523 76.9688 98.9805 76.2617 98.6367 75.7852C98.3008 75.3086 97.7695 75.0703 97.043 75.0703C95.9492 75.0703 95.2031 75.4414 94.8047 76.1836C94.4062 76.9258 94.207 77.9961 94.207 79.3945V85.5586H90.6328V72.457H93.3633L93.8438 74.1328H94.043C94.3242 73.6797 94.6719 73.3125 95.0859 73.0312C95.5078 72.75 95.9727 72.543 96.4805 72.4102C96.9961 72.2773 97.5273 72.2109 98.0742 72.2109ZM106.688 85.5586V68.4258H110.32V82.5586H117.27V85.5586H106.688ZM123.551 85.5586H119.977V72.457H123.551V85.5586ZM126.375 67.1719V67.418C126.148 67.6367 125.852 67.9062 125.484 68.2266C125.117 68.5469 124.723 68.8828 124.301 69.2344C123.879 69.5781 123.465 69.9102 123.059 70.2305C122.652 70.543 122.297 70.8047 121.992 71.0156H119.613V70.6992C119.871 70.4023 120.168 70.0508 120.504 69.6445C120.848 69.2305 121.188 68.8047 121.523 68.3672C121.859 67.9297 122.141 67.5312 122.367 67.1719H126.375ZM134.754 72.2109C136.152 72.2109 137.277 72.5938 138.129 73.3594C138.98 74.1172 139.406 75.3359 139.406 77.0156V85.5586H135.832V77.9062C135.832 76.9688 135.66 76.2617 135.316 75.7852C134.98 75.3086 134.449 75.0703 133.723 75.0703C132.629 75.0703 131.883 75.4414 131.484 76.1836C131.086 76.9258 130.887 77.9961 130.887 79.3945V85.5586H127.312V72.457H130.043L130.523 74.1328H130.723C131.004 73.6797 131.352 73.3125 131.766 73.0312C132.188 72.75 132.652 72.543 133.16 72.4102C133.676 72.2773 134.207 72.2109 134.754 72.2109ZM148.488 72.2109C149.699 72.2109 150.742 72.4453 151.617 72.9141C152.492 73.375 153.168 74.0469 153.645 74.9297C154.121 75.8125 154.359 76.8906 154.359 78.1641V79.8984H145.91C145.949 80.9062 146.25 81.6992 146.812 82.2773C147.383 82.8477 148.172 83.1328 149.18 83.1328C150.016 83.1328 150.781 83.0469 151.477 82.875C152.172 82.7031 152.887 82.4453 153.621 82.1016V84.8672C152.973 85.1875 152.293 85.4219 151.582 85.5703C150.879 85.7188 150.023 85.793 149.016 85.793C147.703 85.793 146.539 85.5508 145.523 85.0664C144.516 84.582 143.723 83.8438 143.145 82.8516C142.574 81.8594 142.289 80.6094 142.289 79.1016C142.289 77.5703 142.547 76.2969 143.062 75.2812C143.586 74.2578 144.312 73.4922 145.242 72.9844C146.172 72.4688 147.254 72.2109 148.488 72.2109ZM148.512 74.7539C147.816 74.7539 147.238 74.9766 146.777 75.4219C146.324 75.8672 146.062 76.5664 145.992 77.5195H151.008C151 76.9883 150.902 76.5156 150.715 76.1016C150.535 75.6875 150.262 75.3594 149.895 75.1172C149.535 74.875 149.074 74.7539 148.512 74.7539ZM162.633 72.1875C164.391 72.1875 165.738 72.5703 166.676 73.3359C167.613 74.1016 168.082 75.2656 168.082 76.8281V85.5586H165.586L164.895 83.7773H164.801C164.426 84.2461 164.043 84.6289 163.652 84.9258C163.262 85.2227 162.812 85.4414 162.305 85.582C161.797 85.7227 161.18 85.793 160.453 85.793C159.68 85.793 158.984 85.6445 158.367 85.3477C157.758 85.0508 157.277 84.5977 156.926 83.9883C156.574 83.3711 156.398 82.5898 156.398 81.6445C156.398 80.2539 156.887 79.2305 157.863 78.5742C158.84 77.9102 160.305 77.543 162.258 77.4727L164.531 77.4023V76.8281C164.531 76.1406 164.352 75.6367 163.992 75.3164C163.633 74.9961 163.133 74.8359 162.492 74.8359C161.859 74.8359 161.238 74.9258 160.629 75.1055C160.02 75.2852 159.41 75.5117 158.801 75.7852L157.617 73.3711C158.312 73.0039 159.09 72.7148 159.949 72.5039C160.816 72.293 161.711 72.1875 162.633 72.1875ZM164.531 79.4883L163.148 79.5352C161.992 79.5664 161.188 79.7734 160.734 80.1562C160.289 80.5391 160.066 81.043 160.066 81.668C160.066 82.2148 160.227 82.6055 160.547 82.8398C160.867 83.0664 161.285 83.1797 161.801 83.1797C162.566 83.1797 163.211 82.9531 163.734 82.5C164.266 82.0469 164.531 81.4023 164.531 80.5664V79.4883Z" fill="white"/>
<path d="M103.313 20.6082C103.155 20.4328 102.977 20.2722 102.781 20.1297L102.581 20.084C102.476 20.0341 102.392 19.9521 102.338 19.8531C102.025 19.6915 101.697 19.5873 101.364 19.5352C101.076 19.4915 100.873 19.1992 100.915 18.8821C100.954 18.5652 101.223 18.344 101.511 18.3876C101.841 18.4408 102.171 18.5323 102.488 18.6684C102.54 18.4152 102.569 18.1568 102.569 17.8963C102.568 17.3262 102.446 16.7508 102.185 16.2095C101.887 15.5906 101.451 15.1077 100.94 14.7782C100.493 14.4889 99.9876 14.3166 99.4684 14.2762C99.4306 14.7941 99.3178 15.3099 99.1214 15.8097C99.0046 16.1031 98.6946 16.2383 98.4253 16.1117C98.1569 15.9862 98.0325 15.6459 98.1482 15.3523C98.3367 14.8707 98.4253 14.3751 98.4273 13.8837L98.4204 13.6742C98.3845 12.9936 98.1783 12.3364 97.8273 11.7759C97.4763 11.2164 96.9843 10.7581 96.3719 10.4678C95.9324 10.2625 95.4773 10.1658 95.0291 10.1658C94.1705 10.1658 93.3392 10.5275 92.7112 11.1654C92.8288 11.6025 92.8959 12.063 92.8959 12.5417C92.8959 12.8608 92.6567 13.1202 92.365 13.1202C92.0733 13.1202 91.8351 12.8608 91.8351 12.5417C91.8351 12.0726 91.7564 11.628 91.6125 11.2144H91.6135C91.3694 10.5179 90.9377 9.91805 90.3845 9.49476C89.8332 9.0716 89.1653 8.82373 88.438 8.82373C87.8071 8.82373 87.2188 9.01204 86.7132 9.33738C86.3087 9.59895 85.9597 9.9521 85.6856 10.3669C86.2213 11.1698 86.5382 12.162 86.5382 13.2319C86.5382 13.5509 86.3 13.8094 86.0073 13.8094C85.7156 13.8094 85.4774 13.5509 85.4774 13.2319C85.4774 12.2919 85.1614 11.4368 84.6355 10.7827C84.0113 10.0031 83.1003 9.51511 82.0793 9.51511C81.3706 9.51511 80.7182 9.75009 80.1727 10.1543C79.6291 10.5584 79.1965 11.1305 78.9407 11.8027C78.7755 12.2418 78.6811 12.7258 78.6811 13.2319C78.6811 13.5509 78.4449 13.8094 78.1523 13.8094C77.8595 13.8094 77.6234 13.5509 77.6234 13.2319C77.6234 12.7618 77.6856 12.3088 77.7984 11.877C77.3997 11.7005 76.9681 11.6027 76.5248 11.6027C76.273 11.6027 76.0202 11.6346 75.7634 11.6974C75.0089 11.8877 74.378 12.3323 73.9161 12.9341C73.5835 13.3682 73.3462 13.8838 73.2228 14.4379C74.3167 14.4591 75.4095 14.9217 76.2535 15.8257C76.4616 16.0501 76.4655 16.416 76.2613 16.6435C76.0562 16.8732 75.7216 16.8754 75.5126 16.653C74.8496 15.9459 73.9949 15.5917 73.1354 15.5906C72.9818 15.5906 72.8281 15.6023 72.6745 15.6236H72.6726H72.6716C71.9512 15.733 71.257 16.0924 70.7056 16.7073C70.0581 17.4304 69.7372 18.3642 69.7363 19.3065C69.7363 19.8436 69.8432 20.3848 70.0571 20.8826C70.2233 21.2749 70.4567 21.6408 70.7581 21.962V21.9629C71.0985 22.3288 71.4913 22.5989 71.9104 22.7754C72.1815 22.8914 72.3187 23.2264 72.2118 23.5241C72.1059 23.824 71.8005 23.973 71.5274 23.8559C70.98 23.6241 70.4628 23.269 70.0154 22.7893C69.82 22.5787 69.6459 22.3543 69.4915 22.1162C69.0918 22.7426 68.875 23.4922 68.875 24.2559C68.875 24.8473 69.0044 25.4438 69.2775 26.0043C69.5847 26.6317 70.0292 27.121 70.5522 27.4549C70.9654 27.7197 71.4273 27.8867 71.9037 27.9452L71.9027 27.91C71.9027 27.6037 71.929 27.3039 71.9766 27.0124C72.0311 26.6977 72.3082 26.4923 72.5941 26.5487C72.8818 26.6072 73.0715 26.9092 73.0199 27.2239C72.9819 27.4462 72.9616 27.677 72.9616 27.9099L72.9703 28.1791L72.9984 28.4503V28.4534L72.9994 28.4587C73.2425 30.2752 74.6776 31.6331 76.3577 31.6331L76.6018 31.6225H76.6028C77.3475 31.5641 78.0164 31.2492 78.5473 30.759C78.9197 30.4155 79.2249 29.9849 79.434 29.4997C79.5575 29.2094 79.8754 29.0862 80.1389 29.2232C80.4034 29.3594 80.5163 29.7039 80.3917 29.9933C80.1652 30.5155 79.856 30.9865 79.4846 31.3874C79.6927 32.0872 80.0835 32.6881 80.594 33.1347C81.1775 33.6463 81.9134 33.9483 82.7087 33.9483L82.9538 33.9378H82.9548C83.4584 33.8984 83.9241 33.74 84.3374 33.4932C84.2732 33.1604 84.2363 32.8201 84.2363 32.4755C84.2363 31.765 84.3812 31.0408 84.6806 30.3601C84.808 30.072 85.1239 29.9517 85.3865 30.0911C85.65 30.2282 85.7618 30.575 85.6345 30.8632C85.404 31.3854 85.2961 31.9342 85.2961 32.4755C85.2961 32.854 85.3496 33.2316 85.4526 33.5899H85.4536C85.7249 34.5354 86.3375 35.3618 87.2193 35.8253C87.6957 36.0774 88.1974 36.1955 88.6913 36.1955C89.476 36.1955 90.2431 35.8955 90.8518 35.3521L90.8538 35.351C91.2233 35.0181 91.5325 34.597 91.755 34.0939L91.756 34.0917C91.9631 33.6218 92.072 33.1294 92.0904 32.638C92.104 32.3189 92.35 32.0701 92.6436 32.085C92.9353 32.0989 93.1608 32.3689 93.1482 32.688C93.1229 33.3324 92.98 33.9832 92.7087 34.5968V34.5958C92.4909 35.0925 92.2041 35.5296 91.8678 35.9028C92.4919 36.8833 93.5303 37.5013 94.6533 37.5002C94.8614 37.5002 95.0733 37.479 95.2863 37.4343C96.1039 37.2663 96.7933 36.7929 97.2834 36.1421C97.7725 35.4901 98.0574 34.6617 98.0574 33.7874L98.0564 33.7089V33.7045C98.0525 33.5078 98.0341 33.3016 97.9991 33.094C97.9145 32.6017 97.7423 32.1549 97.5062 31.7604C97.164 31.4307 96.7838 31.0001 96.4251 30.5214C96.0429 30.011 95.691 29.4526 95.4547 28.8901C95.2992 28.5136 95.1883 28.1329 95.1863 27.732C95.1863 27.5544 95.2087 27.3705 95.2699 27.194C95.3292 27.0142 95.4265 26.8441 95.5567 26.7037C95.7628 26.4793 96.0972 26.4793 96.3044 26.7037C96.5105 26.9312 96.5105 27.2991 96.3044 27.5236L96.2644 27.5928L96.2441 27.7322C96.2421 27.8779 96.2976 28.1247 96.4171 28.4085C96.5357 28.6915 96.7117 29.0094 96.9189 29.3231C97.3292 29.9516 97.861 30.5685 98.2615 30.9449L98.316 30.996L98.3559 31.0609C98.6836 31.5947 98.9238 32.2094 99.0394 32.8805V32.8816L99.0773 33.1686L99.2358 33.1761C99.9068 33.175 100.582 32.9581 101.177 32.5018C101.649 32.1381 102.009 31.6712 102.252 31.1469C102.496 30.6216 102.623 30.0409 102.623 29.456C102.623 28.9083 102.51 28.3584 102.285 27.847C102.076 27.9203 101.864 27.9788 101.649 28.0193C101.361 28.0756 101.088 27.8617 101.036 27.5471C100.988 27.2313 101.182 26.9335 101.47 26.8781C102.407 26.7016 103.266 26.104 103.797 25.1447C104.133 24.5417 104.292 23.878 104.292 23.2219C104.292 22.2551 103.95 21.3098 103.315 20.6089L103.313 20.6082ZM79.0576 16.1905C79.5632 15.5365 80.2341 15.0716 80.9555 14.7675C81.6798 14.4633 82.4557 14.3176 83.2005 14.3176C83.9249 14.3187 84.621 14.4527 85.2121 14.7527C85.4766 14.8844 85.5923 15.2301 85.4697 15.5204C85.3482 15.8098 85.0341 15.9374 84.7668 15.8035C84.3585 15.594 83.7994 15.4738 83.2005 15.4738C82.584 15.4738 81.9269 15.598 81.3366 15.8492C80.7465 16.0969 80.2282 16.467 79.8636 16.9371C79.6769 17.1817 79.3415 17.2136 79.1179 17.0052C78.8952 16.7989 78.8671 16.4341 79.0576 16.1905ZM91.106 29.8817C90.4906 29.8817 89.9324 29.8052 89.423 29.6766C89.4366 29.836 89.4463 30.0136 89.4463 30.2019C89.4463 30.5795 89.4084 31.0111 89.3005 31.4642C89.1916 31.9161 89.0079 32.3915 88.7181 32.8478C88.5519 33.1115 88.2222 33.1764 87.9821 32.9944C87.741 32.8125 87.6827 32.4531 87.8469 32.1883C88.0607 31.8511 88.1939 31.5065 88.2757 31.1674C88.3574 30.8282 88.3876 30.4984 88.3876 30.2018C88.3885 29.7923 88.3311 29.4552 88.2903 29.2627C88.0317 29.135 87.7934 28.9915 87.5709 28.8308C86.6842 28.2034 86.0912 27.375 85.7187 26.5868C85.4689 26.0583 85.3171 25.5479 85.2354 25.1044C85.1888 24.8512 85.1655 24.6216 85.1655 24.413C85.1655 24.0919 85.4028 23.8323 85.6954 23.8323C85.988 23.8323 86.2252 24.0919 86.2252 24.413C86.2243 24.5809 86.2574 24.8629 86.341 25.1831C86.4246 25.5042 86.5578 25.869 86.7503 26.2359C87.1363 26.9739 87.7498 27.713 88.6968 28.1928C89.3297 28.5139 90.1172 28.7223 91.106 28.7223C91.3986 28.7223 91.6359 28.9818 91.6359 29.3019C91.6359 29.6223 91.3988 29.8817 91.106 29.8817ZM94.8338 25.6533C94.7249 25.9491 94.4167 26.0937 94.1444 25.9755C93.8732 25.8564 93.7429 25.5214 93.8498 25.2247V25.2236L93.8528 25.2151L93.8685 25.1641L93.9229 24.9557C93.9628 24.7728 94.0036 24.5143 94.0036 24.2304L94.0027 24.1899C93.2754 24.4601 92.6007 24.5812 91.9794 24.5812C91.0402 24.5834 90.2274 24.3016 89.5661 23.8741C88.904 23.4467 88.3888 22.8809 88.0037 22.3055C87.5662 21.6536 86.9925 21.0687 86.3353 20.655C85.6761 20.2402 84.9391 19.9935 84.1564 19.9913C83.471 19.9935 82.7418 20.1806 81.9805 20.6379C81.2581 21.0718 80.7933 21.6492 80.4929 22.2831C80.1945 22.918 80.0681 23.6113 80.069 24.2431C80.067 24.828 80.1799 25.3575 80.3266 25.6915C80.452 25.9808 80.3383 26.3254 80.0748 26.4626C79.8114 26.5999 79.4953 26.4753 79.3699 26.1872C79.1395 25.6532 79.0112 24.981 79.0092 24.2431C79.0102 23.5093 79.1434 22.7073 79.4711 21.9407C78.814 22.1035 78.2034 22.1758 77.6472 22.1758C77.3468 22.1758 77.0637 22.1545 76.7944 22.1162L76.6962 22.3332L76.6952 22.3352L76.6874 22.3439L76.6592 22.3832L76.5464 22.5512C76.4501 22.7023 76.3169 22.9224 76.172 23.2031C75.8833 23.7593 75.5527 24.5442 75.3922 25.4256C75.3349 25.7394 75.0568 25.9447 74.7699 25.8808C74.4832 25.8181 74.2964 25.514 74.3558 25.1981C74.5463 24.1526 74.9227 23.2636 75.2503 22.6308C75.4214 22.3033 75.578 22.0439 75.6926 21.8673C75.261 21.7259 74.8876 21.5525 74.5824 21.3759C73.8853 20.9706 73.5225 20.5644 73.4915 20.5314C73.2892 20.3007 73.295 19.9348 73.505 19.7125C73.716 19.4914 74.0495 19.4978 74.2527 19.7253L74.2586 19.7317L74.2897 19.7646L74.4414 19.9038C74.5793 20.023 74.7924 20.1868 75.0772 20.3526C75.6488 20.6823 76.5026 21.0163 77.6469 21.0185C78.4509 21.0185 79.3989 20.8505 80.5005 20.3868C80.7796 20.1029 81.1013 19.8435 81.4708 19.6222C82.377 19.0788 83.2899 18.8342 84.1562 18.8342C85.146 18.8342 86.0667 19.1491 86.864 19.6509C87.6613 20.1551 88.3371 20.8453 88.8572 21.6216C89.1732 22.0904 89.5883 22.5447 90.1027 22.8753C90.62 23.2071 91.2314 23.4231 91.9791 23.4241C92.4915 23.4241 93.069 23.3199 93.7225 23.0689C93.5631 22.7891 93.3258 22.519 92.935 22.2744C92.6802 22.1159 92.5898 21.7629 92.7336 21.4853C92.8785 21.2056 93.2004 21.1098 93.455 21.2652C94.0812 21.6513 94.5003 22.1628 94.7433 22.6977C94.9892 23.2305 95.0622 23.7707 95.0622 24.2302C95.0593 25.0323 94.8483 25.6119 94.8338 25.6533ZM94.6355 18.5589C93.3987 18.5589 92.3166 18.1941 91.4416 17.6422C91.3181 17.8294 91.1528 18.0644 90.9398 18.3196C90.4606 18.895 89.7565 19.5704 88.8145 19.9403C88.5374 20.0467 88.236 19.8915 88.1377 19.5895C88.0395 19.2873 88.1844 18.9567 88.4576 18.8503C89.1529 18.5791 89.7342 18.0464 90.1368 17.5646C90.3235 17.3444 90.4684 17.136 90.5734 16.9765C90.0513 16.4937 89.6391 15.9439 89.3561 15.3781C89.0879 14.8357 88.9322 14.2763 88.9303 13.7328C88.9303 13.4139 89.1676 13.1543 89.4602 13.1543C89.752 13.1543 89.9891 13.4139 89.9891 13.7328C89.9871 14.0253 90.0805 14.4157 90.2865 14.8251C90.4897 15.2355 90.7989 15.663 91.2034 16.046C92.0124 16.8128 93.1801 17.3998 94.6356 17.3998C94.9282 17.3998 95.1645 17.6604 95.1645 17.9804C95.1644 18.2994 94.9281 18.5589 94.6355 18.5589ZM98.8084 26.7126C98.6227 26.9572 98.2882 26.9933 98.0627 26.788C97.8372 26.5849 97.8061 26.2192 97.9908 25.9735C98.5683 25.2067 98.7813 24.4346 98.7831 23.6956C98.7851 23.0224 98.5964 22.3725 98.3009 21.8249C98.0091 21.2782 97.6058 20.8401 97.2178 20.5966C96.9572 20.4328 96.7122 20.3594 96.5177 20.3594C96.225 20.3594 95.9888 20.1011 95.9888 19.7809C95.9888 19.4609 96.2251 19.2013 96.5177 19.2013C96.8395 19.2013 97.1545 19.2875 97.4541 19.4321C97.7525 19.5747 98.0346 19.7778 98.297 20.0257C98.8211 20.5211 99.2664 21.1954 99.5464 21.9857C99.7311 22.5131 99.8439 23.0917 99.8439 23.6957C99.8449 24.6888 99.5348 25.7522 98.8084 26.7126Z" fill="white"/>
<path d="M66.3203 46.5669L66.3376 46.5948C66.3371 46.5939 66.3371 46.5939 66.3366 46.5931L66.3203 46.5669Z" fill="white"/>
<path d="M104.902 9.37668C101.151 5.37723 95.5085 2.65359 88.2789 2.25582C87.6908 2.22286 87.1056 2.20605 86.5259 2.20605C80.4455 2.20605 74.8521 4.00609 70.7517 7.31071C66.6485 10.6068 64.0935 15.4328 64.1027 21.2129C64.1027 21.3438 64.1037 21.4747 64.1064 21.6064L64.1 22.3037L58.8808 30.707C58.6003 31.1603 58.4585 31.6661 58.4585 32.1719C58.4585 32.5939 58.5568 33.0179 58.7557 33.4129C59.1771 34.2513 60.0059 34.8542 60.9875 35.0619L60.9856 35.0694L63.3859 35.6722L64.3342 44.0114L64.3416 44.0105C64.4084 45.2255 65.0028 46.3661 66.0123 47.1665C66.9097 47.8791 68.0551 48.2658 69.2331 48.2658C69.3524 48.2658 69.4701 48.2557 69.5887 48.2481L72.3084 48.4448L72.4446 48.4314L72.4881 48.4296C72.5927 48.4296 72.69 48.4634 72.765 48.5251L72.7695 48.5294C72.8557 48.6002 72.9067 48.7041 72.9067 48.8105V57.3531H98.3014V56.0563C98.3014 56.0563 98.3014 52.5433 98.3014 51.1417C98.2986 50.5777 98.4218 49.4625 98.6644 48.3868C98.7848 47.8474 98.9338 47.3095 99.1025 46.8444C99.2692 46.38 99.4619 45.9848 99.6229 45.7543C101.312 43.2721 103.7 41.2357 105.887 38.3558C108.072 35.4785 109.934 31.7458 110.444 26.0823C110.509 25.3722 110.542 24.6621 110.542 23.9555C110.542 18.5863 108.66 13.3727 104.902 9.37668ZM107.609 25.8659C107.116 31.1301 105.5 34.2801 103.545 36.8848C101.592 39.487 99.1766 41.5327 97.2105 44.3789C96.8679 44.8821 96.6169 45.4394 96.4012 46.032C96.0808 46.9194 95.8521 47.887 95.6955 48.7879C95.54 49.6912 95.4576 50.5102 95.4567 51.1417C95.4567 52.0418 95.4567 53.4028 95.4567 54.7595H75.7514V48.8106C75.7514 47.9654 75.3569 47.1608 74.666 46.5961C74.0631 46.1021 73.2853 45.8353 72.488 45.8353C72.4296 45.8353 72.3732 45.8412 72.3157 45.8446L69.5988 45.6471L69.4654 45.6605L69.2331 45.6724C68.7385 45.6724 68.257 45.5094 67.88 45.2105C67.4448 44.8652 67.1873 44.3688 67.1706 43.8411L67.1698 43.7922L66.016 33.6438L61.6913 32.5563L61.6395 32.5471C61.508 32.5234 61.3979 32.444 61.3413 32.3325L61.3032 32.1721L61.357 31.9847L66.9391 22.9971L66.9511 21.593V21.5744C66.9484 21.4529 66.9475 21.3329 66.9475 21.2132C66.9568 16.1238 69.1264 12.0947 72.6361 9.25368C76.1495 6.41931 81.0558 4.79991 86.5259 4.79991C87.0472 4.79991 87.5733 4.81509 88.103 4.84471L88.1909 3.55037L88.1038 4.84471C94.6537 5.2204 99.4748 7.60303 102.743 11.0655C106.005 14.5305 107.697 19.1326 107.697 23.9554C107.697 24.5893 107.668 25.2267 107.609 25.8659Z" fill="white"/>
</svg>
