<svg width="169" height="86" viewBox="0 0 169 86" fill="none" xmlns="http://www.w3.org/2000/svg">
<path d="M7.51172 85.5588L3.38672 72.1174H3.28125C3.29688 72.4377 3.32031 72.9221 3.35156 73.5705C3.39062 74.2112 3.42578 74.8948 3.45703 75.6213C3.48828 76.3479 3.50391 77.0041 3.50391 77.5901V85.5588H0.257812V68.426H5.20312L9.25781 81.5276H9.32812L13.6289 68.426H18.5742V85.5588H15.1875V77.4494C15.1875 76.9104 15.1953 76.2893 15.2109 75.5862C15.2344 74.883 15.2617 74.2151 15.293 73.5823C15.3242 72.9416 15.3477 72.4612 15.3633 72.1409H15.2578L10.8398 85.5588H7.51172ZM28.0195 72.2112C29.2305 72.2112 30.2734 72.4455 31.1484 72.9143C32.0234 73.3752 32.6992 74.0471 33.1758 74.9299C33.6523 75.8127 33.8906 76.8909 33.8906 78.1643V79.8987H25.4414C25.4805 80.9065 25.7812 81.6994 26.3438 82.2776C26.9141 82.8479 27.7031 83.133 28.7109 83.133C29.5469 83.133 30.3125 83.0471 31.0078 82.8752C31.7031 82.7034 32.418 82.4455 33.1523 82.1018V84.8674C32.5039 85.1877 31.8242 85.4221 31.1133 85.5705C30.4102 85.719 29.5547 85.7932 28.5469 85.7932C27.2344 85.7932 26.0703 85.551 25.0547 85.0666C24.0469 84.5823 23.2539 83.844 22.6758 82.8518C22.1055 81.8596 21.8203 80.6096 21.8203 79.1018C21.8203 77.5705 22.0781 76.2971 22.5938 75.2815C23.1172 74.258 23.8438 73.4924 24.7734 72.9846C25.7031 72.469 26.7852 72.2112 28.0195 72.2112ZM28.043 74.7541C27.3477 74.7541 26.7695 74.9768 26.3086 75.4221C25.8555 75.8674 25.5938 76.5666 25.5234 77.5198H30.5391C30.5312 76.9885 30.4336 76.5159 30.2461 76.1018C30.0664 75.6877 29.793 75.3596 29.4258 75.1174C29.0664 74.8752 28.6055 74.7541 28.043 74.7541ZM44.2383 72.2112C45.6367 72.2112 46.7617 72.594 47.6133 73.3596C48.4648 74.1174 48.8906 75.3362 48.8906 77.0159V85.5588H45.3164V77.9065C45.3164 76.969 45.1445 76.2619 44.8008 75.7854C44.4648 75.3088 43.9336 75.0705 43.207 75.0705C42.1133 75.0705 41.3672 75.4416 40.9688 76.1838C40.5703 76.926 40.3711 77.9963 40.3711 79.3948V85.5588H36.7969V72.4573H39.5273L40.0078 74.133H40.207C40.4883 73.6799 40.8359 73.3127 41.25 73.0315C41.6719 72.7502 42.1367 72.5432 42.6445 72.4104C43.1602 72.2776 43.6914 72.2112 44.2383 72.2112ZM58.0898 82.9455C58.4805 82.9455 58.8594 82.9065 59.2266 82.8284C59.6016 82.7502 59.9727 82.6526 60.3398 82.5354V85.1955C59.957 85.3674 59.4805 85.508 58.9102 85.6174C58.3477 85.7346 57.7305 85.7932 57.0586 85.7932C56.2773 85.7932 55.5742 85.6682 54.9492 85.4182C54.332 85.1604 53.8438 84.719 53.4844 84.094C53.1328 83.4612 52.957 82.5823 52.957 81.4573V75.1409H51.2461V73.6291L53.2148 72.4338L54.2461 69.6682H56.5312V72.4573H60.1992V75.1409H56.5312V81.4573C56.5312 81.9573 56.6719 82.3323 56.9531 82.5823C57.2422 82.8244 57.6211 82.9455 58.0898 82.9455ZM68.4023 72.2112C69.6133 72.2112 70.6562 72.4455 71.5312 72.9143C72.4062 73.3752 73.082 74.0471 73.5586 74.9299C74.0352 75.8127 74.2734 76.8909 74.2734 78.1643V79.8987H65.8242C65.8633 80.9065 66.1641 81.6994 66.7266 82.2776C67.2969 82.8479 68.0859 83.133 69.0938 83.133C69.9297 83.133 70.6953 83.0471 71.3906 82.8752C72.0859 82.7034 72.8008 82.4455 73.5352 82.1018V84.8674C72.8867 85.1877 72.207 85.4221 71.4961 85.5705C70.793 85.719 69.9375 85.7932 68.9297 85.7932C67.6172 85.7932 66.4531 85.551 65.4375 85.0666C64.4297 84.5823 63.6367 83.844 63.0586 82.8518C62.4883 81.8596 62.2031 80.6096 62.2031 79.1018C62.2031 77.5705 62.4609 76.2971 62.9766 75.2815C63.5 74.258 64.2266 73.4924 65.1562 72.9846C66.0859 72.469 67.168 72.2112 68.4023 72.2112ZM68.4258 74.7541C67.7305 74.7541 67.1523 74.9768 66.6914 75.4221C66.2383 75.8674 65.9766 76.5666 65.9062 77.5198H70.9219C70.9141 76.9885 70.8164 76.5159 70.6289 76.1018C70.4492 75.6877 70.1758 75.3596 69.8086 75.1174C69.4492 74.8752 68.9883 74.7541 68.4258 74.7541Z" fill="#4F80FF"/>
<path d="M7.51172 85.5588L3.38672 72.1174H3.28125C3.29688 72.4377 3.32031 72.9221 3.35156 73.5705C3.39062 74.2112 3.42578 74.8948 3.45703 75.6213C3.48828 76.3479 3.50391 77.0041 3.50391 77.5901V85.5588H0.257812V68.426H5.20312L9.25781 81.5276H9.32812L13.6289 68.426H18.5742V85.5588H15.1875V77.4494C15.1875 76.9104 15.1953 76.2893 15.2109 75.5862C15.2344 74.883 15.2617 74.2151 15.293 73.5823C15.3242 72.9416 15.3477 72.4612 15.3633 72.1409H15.2578L10.8398 85.5588H7.51172ZM28.0195 72.2112C29.2305 72.2112 30.2734 72.4455 31.1484 72.9143C32.0234 73.3752 32.6992 74.0471 33.1758 74.9299C33.6523 75.8127 33.8906 76.8909 33.8906 78.1643V79.8987H25.4414C25.4805 80.9065 25.7812 81.6994 26.3438 82.2776C26.9141 82.8479 27.7031 83.133 28.7109 83.133C29.5469 83.133 30.3125 83.0471 31.0078 82.8752C31.7031 82.7034 32.418 82.4455 33.1523 82.1018V84.8674C32.5039 85.1877 31.8242 85.4221 31.1133 85.5705C30.4102 85.719 29.5547 85.7932 28.5469 85.7932C27.2344 85.7932 26.0703 85.551 25.0547 85.0666C24.0469 84.5823 23.2539 83.844 22.6758 82.8518C22.1055 81.8596 21.8203 80.6096 21.8203 79.1018C21.8203 77.5705 22.0781 76.2971 22.5938 75.2815C23.1172 74.258 23.8438 73.4924 24.7734 72.9846C25.7031 72.469 26.7852 72.2112 28.0195 72.2112ZM28.043 74.7541C27.3477 74.7541 26.7695 74.9768 26.3086 75.4221C25.8555 75.8674 25.5938 76.5666 25.5234 77.5198H30.5391C30.5312 76.9885 30.4336 76.5159 30.2461 76.1018C30.0664 75.6877 29.793 75.3596 29.4258 75.1174C29.0664 74.8752 28.6055 74.7541 28.043 74.7541ZM44.2383 72.2112C45.6367 72.2112 46.7617 72.594 47.6133 73.3596C48.4648 74.1174 48.8906 75.3362 48.8906 77.0159V85.5588H45.3164V77.9065C45.3164 76.969 45.1445 76.2619 44.8008 75.7854C44.4648 75.3088 43.9336 75.0705 43.207 75.0705C42.1133 75.0705 41.3672 75.4416 40.9688 76.1838C40.5703 76.926 40.3711 77.9963 40.3711 79.3948V85.5588H36.7969V72.4573H39.5273L40.0078 74.133H40.207C40.4883 73.6799 40.8359 73.3127 41.25 73.0315C41.6719 72.7502 42.1367 72.5432 42.6445 72.4104C43.1602 72.2776 43.6914 72.2112 44.2383 72.2112ZM58.0898 82.9455C58.4805 82.9455 58.8594 82.9065 59.2266 82.8284C59.6016 82.7502 59.9727 82.6526 60.3398 82.5354V85.1955C59.957 85.3674 59.4805 85.508 58.9102 85.6174C58.3477 85.7346 57.7305 85.7932 57.0586 85.7932C56.2773 85.7932 55.5742 85.6682 54.9492 85.4182C54.332 85.1604 53.8438 84.719 53.4844 84.094C53.1328 83.4612 52.957 82.5823 52.957 81.4573V75.1409H51.2461V73.6291L53.2148 72.4338L54.2461 69.6682H56.5312V72.4573H60.1992V75.1409H56.5312V81.4573C56.5312 81.9573 56.6719 82.3323 56.9531 82.5823C57.2422 82.8244 57.6211 82.9455 58.0898 82.9455ZM68.4023 72.2112C69.6133 72.2112 70.6562 72.4455 71.5312 72.9143C72.4062 73.3752 73.082 74.0471 73.5586 74.9299C74.0352 75.8127 74.2734 76.8909 74.2734 78.1643V79.8987H65.8242C65.8633 80.9065 66.1641 81.6994 66.7266 82.2776C67.2969 82.8479 68.0859 83.133 69.0938 83.133C69.9297 83.133 70.6953 83.0471 71.3906 82.8752C72.0859 82.7034 72.8008 82.4455 73.5352 82.1018V84.8674C72.8867 85.1877 72.207 85.4221 71.4961 85.5705C70.793 85.719 69.9375 85.7932 68.9297 85.7932C67.6172 85.7932 66.4531 85.551 65.4375 85.0666C64.4297 84.5823 63.6367 83.844 63.0586 82.8518C62.4883 81.8596 62.2031 80.6096 62.2031 79.1018C62.2031 77.5705 62.4609 76.2971 62.9766 75.2815C63.5 74.258 64.2266 73.4924 65.1562 72.9846C66.0859 72.469 67.168 72.2112 68.4023 72.2112ZM68.4258 74.7541C67.7305 74.7541 67.1523 74.9768 66.6914 75.4221C66.2383 75.8674 65.9766 76.5666 65.9062 77.5198H70.9219C70.9141 76.9885 70.8164 76.5159 70.6289 76.1018C70.4492 75.6877 70.1758 75.3596 69.8086 75.1174C69.4492 74.8752 68.9883 74.7541 68.4258 74.7541Z" fill="#FF4DE6"/>
<path d="M87.3281 85.5588H77.4609V68.426H87.3281V71.4026H81.0938V75.1643H86.8945V78.1409H81.0938V82.5588H87.3281V85.5588ZM98.0742 72.2112C99.4727 72.2112 100.598 72.594 101.449 73.3596C102.301 74.1174 102.727 75.3362 102.727 77.0159V85.5588H99.1523V77.9065C99.1523 76.969 98.9805 76.2619 98.6367 75.7854C98.3008 75.3088 97.7695 75.0705 97.043 75.0705C95.9492 75.0705 95.2031 75.4416 94.8047 76.1838C94.4062 76.926 94.207 77.9963 94.207 79.3948V85.5588H90.6328V72.4573H93.3633L93.8438 74.133H94.043C94.3242 73.6799 94.6719 73.3127 95.0859 73.0315C95.5078 72.7502 95.9727 72.5432 96.4805 72.4104C96.9961 72.2776 97.5273 72.2112 98.0742 72.2112ZM106.688 85.5588V68.426H110.32V82.5588H117.27V85.5588H106.688ZM123.551 85.5588H119.977V72.4573H123.551V85.5588ZM126.375 67.1721V67.4182C126.148 67.6369 125.852 67.9065 125.484 68.2268C125.117 68.5471 124.723 68.883 124.301 69.2346C123.879 69.5784 123.465 69.9104 123.059 70.2307C122.652 70.5432 122.297 70.8049 121.992 71.0159H119.613V70.6994C119.871 70.4026 120.168 70.051 120.504 69.6448C120.848 69.2307 121.188 68.8049 121.523 68.3674C121.859 67.9299 122.141 67.5315 122.367 67.1721H126.375ZM134.754 72.2112C136.152 72.2112 137.277 72.594 138.129 73.3596C138.98 74.1174 139.406 75.3362 139.406 77.0159V85.5588H135.832V77.9065C135.832 76.969 135.66 76.2619 135.316 75.7854C134.98 75.3088 134.449 75.0705 133.723 75.0705C132.629 75.0705 131.883 75.4416 131.484 76.1838C131.086 76.926 130.887 77.9963 130.887 79.3948V85.5588H127.312V72.4573H130.043L130.523 74.133H130.723C131.004 73.6799 131.352 73.3127 131.766 73.0315C132.188 72.7502 132.652 72.5432 133.16 72.4104C133.676 72.2776 134.207 72.2112 134.754 72.2112ZM148.488 72.2112C149.699 72.2112 150.742 72.4455 151.617 72.9143C152.492 73.3752 153.168 74.0471 153.645 74.9299C154.121 75.8127 154.359 76.8909 154.359 78.1643V79.8987H145.91C145.949 80.9065 146.25 81.6994 146.812 82.2776C147.383 82.8479 148.172 83.133 149.18 83.133C150.016 83.133 150.781 83.0471 151.477 82.8752C152.172 82.7034 152.887 82.4455 153.621 82.1018V84.8674C152.973 85.1877 152.293 85.4221 151.582 85.5705C150.879 85.719 150.023 85.7932 149.016 85.7932C147.703 85.7932 146.539 85.551 145.523 85.0666C144.516 84.5823 143.723 83.844 143.145 82.8518C142.574 81.8596 142.289 80.6096 142.289 79.1018C142.289 77.5705 142.547 76.2971 143.062 75.2815C143.586 74.258 144.312 73.4924 145.242 72.9846C146.172 72.469 147.254 72.2112 148.488 72.2112ZM148.512 74.7541C147.816 74.7541 147.238 74.9768 146.777 75.4221C146.324 75.8674 146.062 76.5666 145.992 77.5198H151.008C151 76.9885 150.902 76.5159 150.715 76.1018C150.535 75.6877 150.262 75.3596 149.895 75.1174C149.535 74.8752 149.074 74.7541 148.512 74.7541ZM162.633 72.1877C164.391 72.1877 165.738 72.5705 166.676 73.3362C167.613 74.1018 168.082 75.2659 168.082 76.8284V85.5588H165.586L164.895 83.7776H164.801C164.426 84.2463 164.043 84.6291 163.652 84.926C163.262 85.2229 162.812 85.4416 162.305 85.5823C161.797 85.7229 161.18 85.7932 160.453 85.7932C159.68 85.7932 158.984 85.6448 158.367 85.3479C157.758 85.051 157.277 84.5979 156.926 83.9885C156.574 83.3713 156.398 82.5901 156.398 81.6448C156.398 80.2541 156.887 79.2307 157.863 78.5744C158.84 77.9104 160.305 77.5432 162.258 77.4729L164.531 77.4026V76.8284C164.531 76.1409 164.352 75.6369 163.992 75.3166C163.633 74.9963 163.133 74.8362 162.492 74.8362C161.859 74.8362 161.238 74.926 160.629 75.1057C160.02 75.2854 159.41 75.5119 158.801 75.7854L157.617 73.3713C158.312 73.0041 159.09 72.7151 159.949 72.5041C160.816 72.2932 161.711 72.1877 162.633 72.1877ZM164.531 79.4885L163.148 79.5354C161.992 79.5666 161.188 79.7737 160.734 80.1565C160.289 80.5393 160.066 81.0432 160.066 81.6682C160.066 82.2151 160.227 82.6057 160.547 82.8401C160.867 83.0666 161.285 83.1799 161.801 83.1799C162.566 83.1799 163.211 82.9534 163.734 82.5002C164.266 82.0471 164.531 81.4026 164.531 80.5666V79.4885Z" fill="#4F80FF"/>
<path d="M103.313 20.608C103.155 20.4326 102.977 20.272 102.781 20.1295L102.581 20.0838C102.476 20.0339 102.392 19.9519 102.338 19.8529C102.025 19.6913 101.697 19.5871 101.364 19.535C101.076 19.4913 100.873 19.199 100.915 18.8819C100.954 18.565 101.223 18.3438 101.511 18.3874C101.841 18.4406 102.171 18.5321 102.488 18.6682C102.54 18.415 102.569 18.1566 102.569 17.8961C102.568 17.326 102.446 16.7506 102.185 16.2093C101.887 15.5904 101.451 15.1075 100.94 14.778C100.493 14.4887 99.9876 14.3164 99.4684 14.276C99.4306 14.7939 99.3178 15.3097 99.1214 15.8095C99.0046 16.1029 98.6946 16.2381 98.4253 16.1115C98.1569 15.986 98.0325 15.6457 98.1482 15.3521C98.3367 14.8705 98.4253 14.3749 98.4273 13.8835L98.4204 13.674C98.3845 12.9934 98.1783 12.3362 97.8273 11.7757C97.4763 11.2162 96.9843 10.7579 96.3719 10.4676C95.9324 10.2623 95.4773 10.1656 95.0291 10.1656C94.1705 10.1656 93.3392 10.5273 92.7112 11.1652C92.8288 11.6023 92.8959 12.0628 92.8959 12.5414C92.8959 12.8605 92.6567 13.1199 92.365 13.1199C92.0733 13.1199 91.8351 12.8605 91.8351 12.5414C91.8351 12.0724 91.7564 11.6278 91.6125 11.2142H91.6135C91.3694 10.5176 90.9377 9.91785 90.3845 9.49455C89.8332 9.07139 89.1653 8.82352 88.438 8.82352C87.8071 8.82352 87.2188 9.01184 86.7132 9.33717C86.3087 9.59875 85.9597 9.9519 85.6856 10.3666C86.2213 11.1695 86.5382 12.1618 86.5382 13.2317C86.5382 13.5507 86.3 13.8092 86.0073 13.8092C85.7156 13.8092 85.4774 13.5507 85.4774 13.2317C85.4774 12.2917 85.1614 11.4365 84.6355 10.7825C84.0113 10.0029 83.1003 9.5149 82.0793 9.5149C81.3706 9.5149 80.7182 9.74988 80.1727 10.154C79.6291 10.5582 79.1965 11.1303 78.9407 11.8024C78.7755 12.2416 78.6811 12.7256 78.6811 13.2317C78.6811 13.5507 78.4449 13.8092 78.1523 13.8092C77.8595 13.8092 77.6234 13.5507 77.6234 13.2317C77.6234 12.7616 77.6856 12.3086 77.7984 11.8768C77.3997 11.7003 76.9681 11.6025 76.5248 11.6025C76.273 11.6025 76.0202 11.6344 75.7634 11.6972C75.0089 11.8875 74.378 12.3321 73.9161 12.9339C73.5835 13.368 73.3462 13.8836 73.2228 14.4377C74.3167 14.4589 75.4095 14.9215 76.2535 15.8255C76.4616 16.0499 76.4655 16.4158 76.2613 16.6433C76.0562 16.873 75.7216 16.8752 75.5126 16.6528C74.8496 15.9457 73.9949 15.5915 73.1354 15.5904C72.9818 15.5904 72.8281 15.602 72.6745 15.6233H72.6726H72.6716C71.9512 15.7328 71.257 16.0922 70.7056 16.7071C70.0581 17.4302 69.7372 18.364 69.7363 19.3063C69.7363 19.8434 69.8432 20.3846 70.0571 20.8824C70.2233 21.2747 70.4567 21.6406 70.7581 21.9618V21.9627C71.0985 22.3286 71.4913 22.5987 71.9104 22.7752C72.1815 22.8912 72.3187 23.2262 72.2118 23.5239C72.1059 23.8238 71.8005 23.9728 71.5274 23.8557C70.98 23.6239 70.4628 23.2688 70.0154 22.7891C69.82 22.5785 69.6459 22.3541 69.4915 22.116C69.0918 22.7424 68.875 23.492 68.875 24.2557C68.875 24.8471 69.0044 25.4436 69.2775 26.0041C69.5847 26.6315 70.0292 27.1208 70.5522 27.4547C70.9654 27.7195 71.4273 27.8865 71.9037 27.945L71.9027 27.9098C71.9027 27.6035 71.929 27.3037 71.9766 27.0122C72.0311 26.6975 72.3082 26.4921 72.5941 26.5485C72.8818 26.607 73.0715 26.909 73.0199 27.2237C72.9819 27.446 72.9616 27.6767 72.9616 27.9097L72.9703 28.1789L72.9984 28.4501V28.4532L72.9994 28.4585C73.2425 30.275 74.6776 31.6329 76.3577 31.6329L76.6018 31.6223H76.6028C77.3475 31.5639 78.0164 31.249 78.5473 30.7588C78.9197 30.4153 79.2249 29.9846 79.434 29.4995C79.5575 29.2092 79.8754 29.086 80.1389 29.223C80.4034 29.3592 80.5163 29.7037 80.3917 29.9931C80.1652 30.5153 79.856 30.9863 79.4846 31.3872C79.6927 32.087 80.0835 32.6879 80.594 33.1345C81.1775 33.6461 81.9134 33.9481 82.7087 33.9481L82.9538 33.9376H82.9548C83.4584 33.8982 83.9241 33.7397 84.3374 33.493C84.2732 33.1602 84.2363 32.8199 84.2363 32.4753C84.2363 31.7648 84.3812 31.0406 84.6806 30.3599C84.808 30.0717 85.1239 29.9515 85.3865 30.0909C85.65 30.228 85.7618 30.5748 85.6345 30.863C85.404 31.3852 85.2961 31.934 85.2961 32.4753C85.2961 32.8538 85.3496 33.2314 85.4526 33.5897H85.4536C85.7249 34.5352 86.3375 35.3615 87.2193 35.8251C87.6957 36.0772 88.1974 36.1952 88.6913 36.1952C89.476 36.1952 90.2431 35.8953 90.8518 35.3519L90.8538 35.3508C91.2233 35.0179 91.5325 34.5968 91.755 34.0937L91.756 34.0915C91.9631 33.6216 92.072 33.1292 92.0904 32.6378C92.104 32.3187 92.35 32.0699 92.6436 32.0848C92.9353 32.0987 93.1608 32.3687 93.1482 32.6878C93.1229 33.3322 92.98 33.983 92.7087 34.5966V34.5956C92.4909 35.0922 92.2041 35.5294 91.8678 35.9026C92.4919 36.8831 93.5303 37.5011 94.6533 37.5C94.8614 37.5 95.0733 37.4788 95.2863 37.4341C96.1039 37.2661 96.7933 36.7927 97.2834 36.1419C97.7725 35.4899 98.0574 34.6615 98.0574 33.7872L98.0564 33.7087V33.7043C98.0525 33.5076 98.0341 33.3014 97.9991 33.0938C97.9145 32.6015 97.7423 32.1547 97.5062 31.7602C97.164 31.4305 96.7838 30.9999 96.4251 30.5212C96.0429 30.0108 95.691 29.4524 95.4547 28.8899C95.2992 28.5134 95.1883 28.1327 95.1863 27.7318C95.1863 27.5542 95.2087 27.3703 95.2699 27.1938C95.3292 27.014 95.4265 26.8439 95.5567 26.7034C95.7628 26.479 96.0972 26.479 96.3044 26.7034C96.5105 26.931 96.5105 27.2989 96.3044 27.5234L96.2644 27.5926L96.2441 27.732C96.2421 27.8777 96.2976 28.1245 96.4171 28.4083C96.5357 28.6913 96.7117 29.0092 96.9189 29.3228C97.3292 29.9514 97.861 30.5683 98.2615 30.9447L98.316 30.9958L98.3559 31.0607C98.6836 31.5945 98.9238 32.2092 99.0394 32.8803V32.8814L99.0773 33.1684L99.2358 33.1759C99.9068 33.1748 100.582 32.9579 101.177 32.5016C101.649 32.1379 102.009 31.671 102.252 31.1467C102.496 30.6213 102.623 30.0407 102.623 29.4558C102.623 28.9081 102.51 28.3582 102.285 27.8467C102.076 27.9201 101.864 27.9786 101.649 28.019C101.361 28.0753 101.088 27.8615 101.036 27.5469C100.988 27.2311 101.182 26.9333 101.47 26.8779C102.407 26.7014 103.266 26.1038 103.797 25.1445C104.133 24.5415 104.292 23.8778 104.292 23.2217C104.292 22.2549 103.95 21.3096 103.315 20.6087L103.313 20.608ZM79.0576 16.1903C79.5632 15.5362 80.2341 15.0714 80.9555 14.7673C81.6798 14.4631 82.4557 14.3174 83.2005 14.3174C83.9249 14.3185 84.621 14.4525 85.2121 14.7525C85.4766 14.8842 85.5923 15.2299 85.4697 15.5202C85.3482 15.8096 85.0341 15.9372 84.7668 15.8032C84.3585 15.5938 83.7994 15.4736 83.2005 15.4736C82.584 15.4736 81.9269 15.5978 81.3366 15.849C80.7465 16.0967 80.2282 16.4668 79.8636 16.9369C79.6769 17.1815 79.3415 17.2134 79.1179 17.005C78.8952 16.7987 78.8671 16.4338 79.0576 16.1903ZM91.106 29.8815C90.4906 29.8815 89.9324 29.805 89.423 29.6764C89.4366 29.8358 89.4463 30.0134 89.4463 30.2017C89.4463 30.5793 89.4084 31.0109 89.3005 31.464C89.1916 31.9159 89.0079 32.3913 88.7181 32.8476C88.5519 33.1113 88.2222 33.1762 87.9821 32.9942C87.741 32.8123 87.6827 32.4529 87.8469 32.1881C88.0607 31.8509 88.1939 31.5063 88.2757 31.1672C88.3574 30.828 88.3876 30.4982 88.3876 30.2016C88.3885 29.7921 88.3311 29.455 88.2903 29.2625C88.0317 29.1348 87.7934 28.9913 87.5709 28.8306C86.6842 28.2031 86.0912 27.3747 85.7187 26.5866C85.4689 26.0581 85.3171 25.5477 85.2354 25.1042C85.1888 24.851 85.1655 24.6214 85.1655 24.4128C85.1655 24.0916 85.4028 23.8321 85.6954 23.8321C85.988 23.8321 86.2252 24.0916 86.2252 24.4128C86.2243 24.5807 86.2574 24.8627 86.341 25.1828C86.4246 25.504 86.5578 25.8688 86.7503 26.2357C87.1363 26.9737 87.7498 27.7128 88.6968 28.1926C89.3297 28.5137 90.1172 28.7221 91.106 28.7221C91.3986 28.7221 91.6359 28.9816 91.6359 29.3017C91.6359 29.6221 91.3988 29.8815 91.106 29.8815ZM94.8338 25.6531C94.7249 25.9488 94.4167 26.0935 94.1444 25.9753C93.8732 25.8562 93.7429 25.5212 93.8498 25.2245V25.2234L93.8528 25.2149L93.8685 25.1639L93.9229 24.9555C93.9628 24.7726 94.0036 24.5141 94.0036 24.2302L94.0027 24.1897C93.2754 24.4599 92.6007 24.581 91.9794 24.581C91.0402 24.5832 90.2274 24.3014 89.5661 23.8739C88.904 23.4465 88.3888 22.8806 88.0037 22.3053C87.5662 21.6534 86.9925 21.0685 86.3353 20.6548C85.6761 20.24 84.9391 19.9933 84.1564 19.9911C83.471 19.9933 82.7418 20.1804 81.9805 20.6377C81.2581 21.0716 80.7933 21.649 80.4929 22.2829C80.1945 22.9178 80.0681 23.6111 80.069 24.2429C80.067 24.8278 80.1799 25.3573 80.3266 25.6913C80.452 25.9806 80.3383 26.3252 80.0748 26.4624C79.8114 26.5997 79.4953 26.4751 79.3699 26.1869C79.1395 25.6529 79.0112 24.9808 79.0092 24.2429C79.0102 23.5091 79.1434 22.7071 79.4711 21.9405C78.814 22.1033 78.2034 22.1756 77.6472 22.1756C77.3468 22.1756 77.0637 22.1543 76.7944 22.116L76.6962 22.3329L76.6952 22.335L76.6874 22.3437L76.6592 22.383L76.5464 22.551C76.4501 22.7021 76.3169 22.9222 76.172 23.2029C75.8833 23.7591 75.5527 24.544 75.3922 25.4254C75.3349 25.7392 75.0568 25.9445 74.7699 25.8806C74.4832 25.8179 74.2964 25.5137 74.3558 25.1979C74.5463 24.1524 74.9227 23.2634 75.2503 22.6306C75.4214 22.3031 75.578 22.0437 75.6926 21.8671C75.261 21.7257 74.8876 21.5523 74.5824 21.3757C73.8853 20.9704 73.5225 20.5642 73.4915 20.5312C73.2892 20.3005 73.295 19.9346 73.505 19.7123C73.716 19.4912 74.0495 19.4976 74.2527 19.7251L74.2586 19.7315L74.2897 19.7644L74.4414 19.9036C74.5793 20.0227 74.7924 20.1866 75.0772 20.3524C75.6488 20.6821 76.5026 21.0161 77.6469 21.0183C78.4509 21.0183 79.3989 20.8503 80.5005 20.3866C80.7796 20.1027 81.1013 19.8433 81.4708 19.622C82.377 19.0786 83.2899 18.834 84.1562 18.834C85.146 18.834 86.0667 19.1489 86.864 19.6507C87.6613 20.1549 88.3371 20.845 88.8572 21.6214C89.1732 22.0902 89.5883 22.5445 90.1027 22.8751C90.62 23.2069 91.2314 23.4229 91.9791 23.4239C92.4915 23.4239 93.069 23.3197 93.7225 23.0687C93.5631 22.7889 93.3258 22.5188 92.935 22.2742C92.6802 22.1157 92.5898 21.7627 92.7336 21.4851C92.8785 21.2054 93.2004 21.1096 93.455 21.2649C94.0812 21.6511 94.5003 22.1625 94.7433 22.6975C94.9892 23.2303 95.0622 23.7705 95.0622 24.23C95.0593 25.0321 94.8483 25.6117 94.8338 25.6531ZM94.6355 18.5587C93.3987 18.5587 92.3166 18.1939 91.4416 17.642C91.3181 17.8292 91.1528 18.0642 90.9398 18.3194C90.4606 18.8948 89.7565 19.5701 88.8145 19.9401C88.5374 20.0465 88.236 19.8913 88.1377 19.5893C88.0395 19.2871 88.1844 18.9565 88.4576 18.8501C89.1529 18.5789 89.7342 18.0462 90.1368 17.5644C90.3235 17.3442 90.4684 17.1358 90.5734 16.9763C90.0513 16.4935 89.6391 15.9437 89.3561 15.3779C89.0879 14.8355 88.9322 14.2761 88.9303 13.7326C88.9303 13.4137 89.1676 13.1541 89.4602 13.1541C89.752 13.1541 89.9891 13.4137 89.9891 13.7326C89.9871 14.0251 90.0805 14.4155 90.2865 14.8249C90.4897 15.2353 90.7989 15.6628 91.2034 16.0458C92.0124 16.8126 93.1801 17.3995 94.6356 17.3995C94.9282 17.3995 95.1645 17.6602 95.1645 17.9802C95.1644 18.2992 94.9281 18.5587 94.6355 18.5587ZM98.8084 26.7124C98.6227 26.957 98.2882 26.9931 98.0627 26.7878C97.8372 26.5847 97.8061 26.219 97.9908 25.9733C98.5683 25.2065 98.7813 24.4344 98.7831 23.6954C98.7851 23.0222 98.5964 22.3723 98.3009 21.8247C98.0091 21.278 97.6058 20.8399 97.2178 20.5964C96.9572 20.4326 96.7122 20.3592 96.5177 20.3592C96.225 20.3592 95.9888 20.1009 95.9888 19.7807C95.9888 19.4607 96.2251 19.2011 96.5177 19.2011C96.8395 19.2011 97.1545 19.2873 97.4541 19.4319C97.7525 19.5745 98.0346 19.7776 98.297 20.0255C98.8211 20.5209 99.2664 21.1952 99.5464 21.9855C99.7311 22.5128 99.8439 23.0915 99.8439 23.6955C99.8449 24.6886 99.5348 25.752 98.8084 26.7124Z" fill="#FF4DE6"/>
<path d="M66.3199 46.5669L66.3372 46.5948C66.3367 46.594 66.3367 46.594 66.3362 46.5931L66.3199 46.5669Z" fill="#4F80FF"/>
<path d="M104.902 9.3765C101.151 5.37705 95.5084 2.65341 88.2787 2.25564C87.6907 2.22268 87.1054 2.20588 86.5257 2.20588C80.4453 2.20588 74.852 4.00591 70.7516 7.31054C66.6483 10.6067 64.0934 15.4327 64.1026 21.2128C64.1026 21.3436 64.1035 21.4745 64.1062 21.6062L64.0999 22.3035L58.8807 30.7068C58.6001 31.1601 58.4583 31.6659 58.4583 32.1717C58.4583 32.5937 58.5566 33.0177 58.7556 33.4128C59.177 34.2512 60.0057 34.854 60.9873 35.0617L60.9854 35.0692L63.3857 35.6721L64.334 44.0112L64.3415 44.0104C64.4082 45.2253 65.0027 46.366 66.0121 47.1663C66.9095 47.879 68.055 48.2656 69.2329 48.2656C69.3522 48.2656 69.4699 48.2555 69.5885 48.248L72.3083 48.4446L72.4445 48.4312L72.488 48.4295C72.5925 48.4295 72.6898 48.4633 72.7649 48.5249L72.7694 48.5292C72.8556 48.6001 72.9065 48.7039 72.9065 48.8103V57.3529H98.3013V56.0561C98.3013 56.0561 98.3013 52.5431 98.3013 51.1416C98.2984 50.5775 98.4216 49.4623 98.6643 48.3866C98.7847 47.8472 98.9336 47.3093 99.1023 46.8442C99.269 46.3799 99.4617 45.9847 99.6227 45.7542C101.312 43.2719 103.7 41.2356 105.887 38.3556C108.072 35.4783 109.934 31.7456 110.444 26.0821C110.509 25.3721 110.542 24.6619 110.542 23.9554C110.542 18.5862 108.66 13.3725 104.902 9.3765ZM107.609 25.8657C107.115 31.13 105.5 34.2799 103.544 36.8847C101.591 39.4868 99.1764 41.5325 97.2104 44.3787C96.8678 44.8819 96.6167 45.4392 96.401 46.0318C96.0806 46.9193 95.8519 47.8868 95.6954 48.7877C95.5398 49.691 95.4575 50.5101 95.4565 51.1416C95.4565 52.0416 95.4565 53.4026 95.4565 54.7593H75.7513V48.8104C75.7513 47.9652 75.3568 47.1606 74.6658 46.5959C74.063 46.102 73.2851 45.8352 72.4878 45.8352C72.4295 45.8352 72.373 45.841 72.3156 45.8444L69.5987 45.6469L69.4653 45.6604L69.2329 45.6722C68.7384 45.6722 68.2569 45.5092 67.8799 45.2104C67.4447 44.865 67.1871 44.3686 67.1705 43.8409L67.1697 43.792L66.0158 33.6436L61.6912 32.5561L61.6393 32.5469C61.5078 32.5232 61.3977 32.4438 61.3411 32.3323L61.3031 32.172L61.3568 31.9845L66.9389 22.997L66.951 21.5929V21.5742C66.9483 21.4527 66.9473 21.3328 66.9473 21.213C66.9567 16.1236 69.1262 12.0945 72.636 9.2535C76.1494 6.41914 81.0556 4.79973 86.5257 4.79973C87.047 4.79973 87.5731 4.81492 88.1028 4.84454L88.1907 3.5502L88.1037 4.84454C94.6535 5.22023 99.4746 7.60286 102.743 11.0653C106.005 14.5303 107.697 19.1325 107.697 23.9553C107.697 24.5891 107.668 25.2265 107.609 25.8657Z" fill="#4F80FF"/>
</svg>
