<svg width="121" height="19" viewBox="0 0 121 19" fill="none" xmlns="http://www.w3.org/2000/svg">
<path d="M9.1071 4.17854L10.0156 6.42675L10.3618 7.28368L11.283 7.35969L13.7393 7.56239L11.8353 9.24118L11.164 9.83308L11.366 10.7049L11.9335 13.1535L9.90547 11.8785L9.1071 11.3766L8.30873 11.8785L6.28074 13.1535L6.84818 10.7049L7.05023 9.83308L6.37893 9.24118L4.47491 7.56239L6.93125 7.35969L7.85237 7.28368L8.19864 6.42675L9.1071 4.17854Z" fill="#F1C644" stroke="#F1C644" stroke-width="3"/>
<path d="M34.9044 4.17854L35.8129 6.42675L36.1592 7.28368L37.0803 7.35969L39.5366 7.56239L37.6326 9.24119L36.9613 9.83308L37.1634 10.7049L37.7308 13.1535L35.7028 11.8785L34.9044 11.3766L34.1061 11.8785L32.0781 13.1535L32.6455 10.7049L32.8476 9.83308L32.1763 9.24119L30.2723 7.56239L32.7286 7.35969L33.6497 7.28368L33.996 6.42675L34.9044 4.17854Z" fill="#808241" stroke="#808241" stroke-width="3"/>
<path d="M60.7013 4.17854L61.6098 6.42675L61.9561 7.28368L62.8772 7.35969L65.3335 7.56239L63.4295 9.24118L62.7582 9.83308L62.9603 10.7049L63.5277 13.1535L61.4997 11.8785L60.7013 11.3766L59.903 11.8785L57.875 13.1535L58.4424 10.7049L58.6445 9.83308L57.9732 9.24118L56.0691 7.56239L58.5255 7.35969L59.4466 7.28368L59.7929 6.42675L60.7013 4.17854Z" fill="#808241" stroke="#808241" stroke-width="3"/>
<path d="M86.4987 0.174805L88.7979 5.86477L94.7658 6.35724L90.2189 10.3663L91.608 16.3606L86.4987 13.1484L81.3893 16.3606L82.7785 10.3663L78.2316 6.35724L84.1995 5.86477L86.4987 0.174805Z" fill="#808241"/>
<path d="M112.296 0.174805L114.595 5.86477L120.563 6.35724L116.016 10.3663L117.405 16.3606L112.296 13.1484L107.187 16.3606L108.576 10.3663L104.029 6.35724L109.997 5.86477L112.296 0.174805Z" fill="#808241"/>
</svg>
