<svg width="121" height="20" viewBox="0 0 121 20" fill="none" xmlns="http://www.w3.org/2000/svg">
<path d="M9.10709 4.67097L10.0048 7.02479L10.3396 7.90275L11.2756 7.98459L13.8912 8.21328L11.8033 10.1638L11.1795 10.7466L11.3619 11.5804L11.9577 14.3043L9.93869 12.9594L9.10709 12.4054L8.2755 12.9594L6.2565 14.3043L6.85226 11.5804L7.03464 10.7466L6.4109 10.1638L4.32301 8.21328L6.93854 7.98459L7.8746 7.90275L8.20943 7.02479L9.10709 4.67097Z" fill="#F1C644" stroke="#F1C644" stroke-width="3"/>
<path d="M34.9045 4.67097L35.8021 7.02479L36.1369 7.90275L37.073 7.98459L39.6885 8.21328L37.6007 10.1638L36.9769 10.7466L37.1593 11.5804L37.755 14.3043L35.7361 12.9594L34.9045 12.4054L34.0729 12.9594L32.0539 14.3043L32.6496 11.5804L32.832 10.7466L32.2083 10.1638L30.1204 8.21328L32.7359 7.98459L33.672 7.90275L34.0068 7.02479L34.9045 4.67097Z" fill="#F1C644" stroke="#F1C644" stroke-width="3"/>
<path d="M60.7013 4.67097L61.599 7.02479L61.9338 7.90275L62.8699 7.98459L65.4854 8.21328L63.3975 10.1638L62.7738 10.7466L62.9562 11.5804L63.5519 14.3043L61.5329 12.9594L60.7013 12.4054L59.8697 12.9594L57.8507 14.3043L58.4465 11.5804L58.6289 10.7466L58.0051 10.1638L55.9173 8.21328L58.5328 7.98459L59.4688 7.90275L59.8037 7.02479L60.7013 4.67097Z" fill="#F1C644" stroke="#F1C644" stroke-width="3"/>
<path d="M86.4987 0.461426L88.7979 6.4903L94.7658 7.01209L90.2189 11.2599L91.608 17.6113L86.4987 14.2077L81.3893 17.6113L82.7785 11.2599L78.2316 7.01209L84.1995 6.4903L86.4987 0.461426Z" fill="#808241"/>
<path d="M112.296 0.461426L114.595 6.4903L120.563 7.01209L116.016 11.2599L117.405 17.6113L112.296 14.2077L107.187 17.6113L108.576 11.2599L104.029 7.01209L109.997 6.4903L112.296 0.461426Z" fill="#808241"/>
</svg>
