<svg width="36" height="35" viewBox="0 0 36 35" fill="none" xmlns="http://www.w3.org/2000/svg">
<rect x="0.5" width="35" height="35" rx="17.5" fill="#E2E2E2"/>
<path fill-rule="evenodd" clip-rule="evenodd" d="M28.9375 25.1562H23.4688V21.875H28.9375V25.1562ZM28.9375 19.6875V14.2187H23.4688V8.75H15.8125H13.625H7.0625V14.2187H4.875V21.875H7.0625V27.3437H13.625H15.8125H21.2812H23.4688H31.125V19.6875H28.9375ZM26.75 19.6875V16.4062H23.4688H21.2812V19.6875H23.4688H26.75ZM21.2812 21.875H19.0938H15.8125V25.1562H21.2812V21.875ZM19.0938 16.4062V19.6875H13.625V16.4062H15.8125H19.0938ZM13.625 21.875V25.1562H9.25V21.875H13.625ZM21.2812 10.9375H15.8125V14.2187H21.2812V10.9375ZM7.0625 16.4062V19.6875H11.4375V16.4062H7.0625ZM9.25 14.2187H13.625V10.9375H9.25V14.2187Z" fill="#080341"/>
</svg>
