<svg width="36" height="38" viewBox="0 0 36 38" fill="none" xmlns="http://www.w3.org/2000/svg">
<path d="M30.5419 12.7387C30.4363 12.6217 30.3177 12.5146 30.1874 12.4197L30.0538 12.3892C29.9839 12.3559 29.9281 12.3013 29.8917 12.2352C29.683 12.1275 29.4646 12.058 29.2423 12.0233C29.0504 11.9942 28.9156 11.7993 28.9434 11.5879C28.9693 11.3766 29.1489 11.2292 29.3408 11.2582C29.5606 11.2937 29.7809 11.3547 29.9922 11.4454C30.0265 11.2767 30.046 11.1044 30.046 10.9307C30.0453 10.5507 29.9637 10.1671 29.79 9.80618C29.5916 9.39356 29.3006 9.07166 28.9602 8.85196C28.6621 8.65913 28.325 8.54426 27.9789 8.51731C27.9536 8.86254 27.8785 9.20643 27.7475 9.53963C27.6697 9.73527 27.463 9.82536 27.2834 9.74097C27.1045 9.6573 27.0216 9.43046 27.0987 9.23474C27.2244 8.91365 27.2834 8.58324 27.2848 8.25564L27.2802 8.11599C27.2562 7.66222 27.1188 7.22409 26.8848 6.85046C26.6508 6.47745 26.3228 6.17192 25.9145 5.97836C25.6215 5.84152 25.3181 5.77703 25.0193 5.77703C24.4469 5.77703 23.8927 6.01816 23.4741 6.44344C23.5524 6.73486 23.5972 7.04184 23.5972 7.36094C23.5972 7.57367 23.4378 7.74661 23.2433 7.74661C23.0488 7.74661 22.89 7.57367 22.89 7.36094C22.89 7.04826 22.8375 6.75187 22.7416 6.47609H22.7422C22.5795 6.01174 22.2917 5.61187 21.9229 5.32968C21.5554 5.04757 21.1101 4.88232 20.6253 4.88232C20.2046 4.88232 19.8124 5.00787 19.4754 5.22476C19.2057 5.39914 18.973 5.63457 18.7903 5.91107C19.1474 6.44634 19.3587 7.10787 19.3587 7.82114C19.3587 8.03378 19.1999 8.20608 19.0048 8.20608C18.8103 8.20608 18.6515 8.03378 18.6515 7.82114C18.6515 7.19443 18.4408 6.62434 18.0902 6.18829C17.6741 5.66858 17.0668 5.34324 16.3862 5.34324C15.9137 5.34324 15.4787 5.4999 15.115 5.76934C14.7527 6.03878 14.4643 6.4202 14.2938 6.86827C14.1836 7.16105 14.1207 7.48368 14.1207 7.82114C14.1207 8.03378 13.9632 8.20608 13.7681 8.20608C13.5729 8.20608 13.4155 8.03378 13.4155 7.82114C13.4155 7.50774 13.457 7.20573 13.5322 6.91784C13.2664 6.80017 12.9786 6.73495 12.6831 6.73495C12.5152 6.73495 12.3467 6.75621 12.1756 6.79809C11.6725 6.92498 11.2519 7.22138 10.944 7.6226C10.7223 7.91194 10.5641 8.25573 10.4818 8.62512C11.211 8.63923 11.9396 8.94766 12.5023 9.55031C12.641 9.6999 12.6436 9.94384 12.5075 10.0955C12.3707 10.2486 12.1477 10.2501 12.0084 10.1019C11.5663 9.63044 10.9966 9.39428 10.4235 9.39356C10.3211 9.39356 10.2187 9.40134 10.1162 9.41554H10.115H10.1143C9.63406 9.48853 9.17124 9.72812 8.80368 10.138C8.37195 10.6201 8.15803 11.2427 8.15745 11.8708C8.15745 12.2289 8.22873 12.5897 8.37129 12.9215C8.4821 13.1831 8.63772 13.4271 8.83866 13.6411V13.6418C9.06556 13.8857 9.32744 14.0658 9.60685 14.1835C9.78762 14.2608 9.87907 14.4841 9.80779 14.6826C9.73717 14.8825 9.53359 14.9818 9.35151 14.9038C8.98659 14.7492 8.64177 14.5125 8.34351 14.1927C8.21327 14.0523 8.09717 13.9027 7.99422 13.744C7.7278 14.1616 7.58325 14.6613 7.58325 15.1704C7.58325 15.5647 7.6695 15.9624 7.85158 16.336C8.05641 16.7543 8.35269 17.0805 8.70139 17.3031C8.97684 17.4796 9.28477 17.591 9.60239 17.63L9.60173 17.6065C9.60173 17.4023 9.61926 17.2024 9.65101 17.0081C9.68731 16.7983 9.87204 16.6614 10.0626 16.699C10.2545 16.738 10.3809 16.9393 10.3465 17.1491C10.3212 17.2973 10.3077 17.4511 10.3077 17.6064L10.3134 17.7859L10.3322 17.9667V17.9688L10.3329 17.9723C10.4949 19.1833 11.4517 20.0886 12.5717 20.0886L12.7345 20.0815H12.7351C13.2316 20.0425 13.6775 19.8326 14.0315 19.5058C14.2797 19.2768 14.4832 18.9897 14.6226 18.6663C14.7049 18.4727 14.9168 18.3906 15.0925 18.482C15.2688 18.5728 15.3441 18.8024 15.2611 18.9953C15.1101 19.3435 14.9039 19.6575 14.6563 19.9248C14.795 20.3913 15.0556 20.7919 15.3959 21.0897C15.7849 21.4307 16.2755 21.6321 16.8057 21.6321L16.9691 21.625H16.9698C17.3055 21.5988 17.616 21.4931 17.8915 21.3286C17.8487 21.1067 17.8241 20.8799 17.8241 20.6502C17.8241 20.1765 17.9207 19.6937 18.1203 19.2399C18.2053 19.0478 18.4159 18.9677 18.5909 19.0606C18.7666 19.152 18.8412 19.3832 18.7562 19.5753C18.6026 19.9234 18.5306 20.2893 18.5306 20.6502C18.5306 20.9025 18.5663 21.1542 18.635 21.3931H18.6357C18.8165 22.0234 19.2249 22.5743 19.8128 22.8834C20.1304 23.0515 20.4649 23.1301 20.7941 23.1301C21.3172 23.1301 21.8287 22.9302 22.2344 22.5679L22.2358 22.5672C22.4821 22.3452 22.6882 22.0645 22.8366 21.7291L22.8373 21.7277C22.9753 21.4144 23.0479 21.0861 23.0602 20.7585C23.0693 20.5458 23.2333 20.3799 23.429 20.3899C23.6235 20.3991 23.7738 20.5791 23.7654 20.7918C23.7485 21.2214 23.6532 21.6553 23.4724 22.0644V22.0637C23.3272 22.3948 23.136 22.6862 22.9118 22.935C23.3279 23.5887 24.0201 24.0007 24.7688 24C24.9075 24 25.0488 23.9859 25.1908 23.956C25.7359 23.844 26.1955 23.5285 26.5222 23.0946C26.8482 22.6599 27.0382 22.1076 27.0382 21.5248L27.0375 21.4724V21.4695C27.035 21.3384 27.0226 21.2009 26.9993 21.0625C26.9429 20.7343 26.8281 20.4364 26.6707 20.1734C26.4426 19.9536 26.1891 19.6666 25.95 19.3475C25.6952 19.0072 25.4606 18.6349 25.3031 18.2599C25.1994 18.0089 25.1255 17.7551 25.1241 17.4879C25.1241 17.3695 25.139 17.2468 25.1799 17.1292C25.2194 17.0093 25.2842 16.8959 25.3711 16.8023C25.5085 16.6527 25.7314 16.6527 25.8695 16.8023C26.0069 16.954 26.0069 17.1992 25.8695 17.3489L25.8429 17.3951L25.8293 17.488C25.828 17.5851 25.865 17.7496 25.9447 17.9388C26.0237 18.1275 26.1411 18.3394 26.2792 18.5485C26.5527 18.9676 26.9073 19.3788 27.1743 19.6297L27.2106 19.6638L27.2372 19.7071C27.4557 20.063 27.6158 20.4728 27.6928 20.9202V20.9209L27.7181 21.1123L27.8238 21.1172C28.2711 21.1165 28.7215 20.9719 29.1176 20.6677C29.4326 20.4252 29.6724 20.114 29.8345 19.7644C29.9972 19.4142 30.0821 19.0271 30.0821 18.6372C30.0821 18.272 30.0068 17.9055 29.8565 17.5645C29.7171 17.6134 29.5758 17.6524 29.4326 17.6793C29.2407 17.7169 29.0586 17.5743 29.0242 17.3646C28.9917 17.154 29.1215 16.9555 29.3133 16.9186C29.9381 16.8009 30.5105 16.4025 30.8644 15.7629C31.0887 15.361 31.1944 14.9185 31.1944 14.4811C31.1944 13.8366 30.9668 13.2064 30.5429 12.7391L30.5419 12.7387ZM14.3716 9.79352C14.7087 9.35747 15.156 9.0476 15.6369 8.84482C16.1198 8.64203 16.637 8.54489 17.1336 8.54489C17.6165 8.54562 18.0806 8.63498 18.4747 8.83496C18.651 8.92278 18.7281 9.15324 18.6464 9.3468C18.5654 9.53972 18.356 9.62474 18.1778 9.53547C17.9056 9.39582 17.5328 9.31568 17.1336 9.31568C16.7226 9.31568 16.2845 9.39853 15.891 9.56595C15.4976 9.73111 15.1521 9.97785 14.909 10.2912C14.7845 10.4543 14.5609 10.4756 14.4118 10.3367C14.2634 10.1991 14.2446 9.95587 14.3716 9.79352ZM22.404 18.921C21.9936 18.921 21.6215 18.87 21.2819 18.7842C21.291 18.8905 21.2975 19.0089 21.2975 19.1345C21.2975 19.3862 21.2722 19.6739 21.2002 19.976C21.1276 20.2773 21.0052 20.5942 20.812 20.8984C20.7012 21.0742 20.4814 21.1174 20.3213 20.9961C20.1606 20.8748 20.1217 20.6352 20.2312 20.4587C20.3737 20.2339 20.4625 20.0042 20.517 19.7781C20.5715 19.552 20.5916 19.3321 20.5916 19.1344C20.5923 18.8614 20.554 18.6366 20.5268 18.5083C20.3544 18.4232 20.1955 18.3275 20.0472 18.2204C19.456 17.8021 19.0607 17.2498 18.8124 16.7244C18.6458 16.372 18.5446 16.0318 18.4902 15.7361C18.4591 15.5673 18.4436 15.4143 18.4436 15.2752C18.4436 15.0611 18.6018 14.888 18.7968 14.888C18.9919 14.888 19.1501 15.0611 19.1501 15.2752C19.1494 15.3871 19.1715 15.5751 19.2272 15.7885C19.283 16.0026 19.3718 16.2458 19.5001 16.4904C19.7574 16.9824 20.1664 17.4752 20.7978 17.795C21.2197 18.0091 21.7447 18.148 22.404 18.148C22.599 18.148 22.7572 18.3211 22.7572 18.5344C22.7572 18.7481 22.5991 18.921 22.404 18.921ZM24.8891 16.102C24.8165 16.2992 24.611 16.3956 24.4295 16.3168C24.2487 16.2374 24.1619 16.0141 24.2331 15.8163V15.8156L24.2351 15.8099L24.2456 15.7759L24.2819 15.637C24.3085 15.515 24.3357 15.3427 24.3357 15.1534L24.335 15.1265C23.8502 15.3065 23.4004 15.3873 22.9862 15.3873C22.36 15.3888 21.8182 15.2009 21.3774 14.9159C20.9359 14.631 20.5925 14.2537 20.3357 13.8702C20.044 13.4356 19.6616 13.0456 19.2234 12.7699C18.784 12.4933 18.2927 12.3288 17.7709 12.3274C17.3139 12.3288 16.8278 12.4536 16.3202 12.7585C15.8387 13.0477 15.5288 13.4327 15.3285 13.8552C15.1296 14.2785 15.0453 14.7407 15.0459 15.1619C15.0446 15.5518 15.1198 15.9049 15.2177 16.1275C15.3013 16.3204 15.2254 16.5501 15.0498 16.6415C14.8742 16.7331 14.6635 16.6501 14.5799 16.4579C14.4262 16.1019 14.3407 15.6539 14.3394 15.1619C14.3401 14.6727 14.4289 14.1381 14.6473 13.6269C14.2092 13.7355 13.8022 13.7837 13.4314 13.7837C13.2311 13.7837 13.0424 13.7695 12.8629 13.744L12.7974 13.8886L12.7967 13.89L12.7915 13.8958L12.7727 13.922L12.6975 14.034C12.6333 14.1347 12.5445 14.2814 12.4479 14.4686C12.2554 14.8394 12.0351 15.3626 11.9281 15.9503C11.8899 16.1595 11.7045 16.2963 11.5132 16.2537C11.322 16.2119 11.1975 16.0091 11.2371 15.7986C11.3641 15.1016 11.6151 14.5089 11.8335 14.087C11.9475 13.8687 12.0519 13.6958 12.1283 13.578C11.8406 13.4838 11.5917 13.3682 11.3882 13.2504C10.9235 12.9802 10.6816 12.7094 10.6609 12.6875C10.526 12.5336 10.5299 12.2897 10.6699 12.1415C10.8106 11.9941 11.0329 11.9983 11.1684 12.15L11.1724 12.1543L11.193 12.1763L11.2942 12.2691C11.3861 12.3485 11.5282 12.4577 11.718 12.5683C12.0991 12.788 12.6683 13.0107 13.4312 13.0122C13.9672 13.0122 14.5992 12.9002 15.3336 12.591C15.5196 12.4017 15.7341 12.2288 15.9805 12.0813C16.5846 11.719 17.1932 11.556 17.7707 11.556C18.4306 11.556 19.0444 11.7659 19.5759 12.1005C20.1075 12.4366 20.558 12.8967 20.9047 13.4142C21.1154 13.7268 21.3922 14.0296 21.7351 14.25C22.0799 14.4713 22.4876 14.6153 22.986 14.6159C23.3276 14.6159 23.7126 14.5464 24.1482 14.3791C24.042 14.1926 23.8838 14.0125 23.6232 13.8494C23.4534 13.7438 23.3931 13.5085 23.489 13.3234C23.5856 13.1369 23.8002 13.073 23.9699 13.1766C24.3874 13.434 24.6668 13.775 24.8288 14.1316C24.9927 14.4868 25.0414 14.847 25.0414 15.1533C25.0395 15.6881 24.8988 16.0744 24.8891 16.102ZM24.7569 11.3725C23.9324 11.3725 23.211 11.1292 22.6276 10.7613C22.5454 10.8861 22.4351 11.0428 22.2931 11.2129C21.9736 11.5965 21.5043 12.0467 20.8762 12.2934C20.6915 12.3643 20.4906 12.2608 20.4251 12.0595C20.3596 11.8581 20.4562 11.6376 20.6383 11.5667C21.1018 11.3859 21.4894 11.0307 21.7578 10.7096C21.8823 10.5628 21.9788 10.4238 22.0489 10.3175C21.7008 9.99567 21.426 9.62908 21.2374 9.25192C21.0585 8.89031 20.9547 8.5174 20.9535 8.15507C20.9535 7.94242 21.1117 7.7694 21.3067 7.7694C21.5012 7.7694 21.6593 7.94242 21.6593 8.15507C21.658 8.35007 21.7203 8.61029 21.8576 8.88326C21.9931 9.15686 22.1992 9.44186 22.4689 9.69719C23.0082 10.2084 23.7866 10.5997 24.757 10.5997C24.9521 10.5997 25.1096 10.7734 25.1096 10.9868C25.1095 11.1994 24.952 11.3725 24.7569 11.3725ZM27.5389 16.8082C27.4151 16.9713 27.1921 16.9954 27.0417 16.8585C26.8914 16.7231 26.8706 16.4793 26.9938 16.3155C27.3788 15.8043 27.5208 15.2895 27.522 14.7969C27.5233 14.3481 27.3975 13.9148 27.2005 13.5498C27.006 13.1853 26.7371 12.8932 26.4784 12.7309C26.3047 12.6217 26.1414 12.5728 26.0117 12.5728C25.8166 12.5728 25.6591 12.4006 25.6591 12.1871C25.6591 11.9737 25.8167 11.8007 26.0117 11.8007C26.2262 11.8007 26.4363 11.8582 26.636 11.9546C26.8349 12.0496 27.023 12.185 27.1979 12.3503C27.5473 12.6806 27.8442 13.1301 28.0309 13.657C28.154 14.0085 28.2292 14.3943 28.2292 14.797C28.2298 15.459 28.0231 16.168 27.5389 16.8082Z" fill="#FF4DE6"/>
<path d="M5.87988 30.0449L5.89138 30.0635C5.89107 30.0629 5.89107 30.0629 5.89075 30.0624L5.87988 30.0449Z" fill="#4F80FF"/>
<path d="M31.6015 5.25112C29.1004 2.58482 25.3389 0.769057 20.5192 0.503878C20.1271 0.481905 19.737 0.470703 19.3505 0.470703C15.2969 0.470703 11.568 1.67073 8.8344 3.87381C6.0989 6.07122 4.3956 9.28856 4.40174 13.142C4.40174 13.2292 4.40237 13.3164 4.40418 13.4043L4.39993 13.8691L0.920476 19.4713C0.733426 19.7735 0.638916 20.1107 0.638916 20.4479C0.638916 20.7293 0.704443 21.0119 0.837072 21.2753C1.118 21.8342 1.67049 22.2361 2.32489 22.3746L2.32363 22.3796L3.92384 22.7815L4.55603 28.3409L4.56099 28.3404C4.60549 29.1503 5.0018 29.9108 5.67479 30.4443C6.27303 30.9194 7.03667 31.1772 7.82197 31.1772C7.90151 31.1772 7.97996 31.1705 8.05903 31.1654L9.8722 31.2965L9.96301 31.2876L9.99199 31.2864C10.0617 31.2864 10.1266 31.309 10.1766 31.35L10.1796 31.3529C10.2371 31.4002 10.271 31.4694 10.271 31.5403V37.2354H27.2009V36.3709C27.2009 36.3709 27.2009 34.0288 27.2009 33.0945C27.199 32.7184 27.2811 31.975 27.4429 31.2578C27.5231 30.8982 27.6225 30.5396 27.7349 30.2296C27.846 29.92 27.9745 29.6566 28.0818 29.5029C29.2079 27.8481 30.8001 26.4905 32.2582 24.5705C33.7146 22.6523 34.9561 20.1639 35.2962 16.3882C35.3395 15.9148 35.3611 15.4414 35.3611 14.9704C35.3611 11.3909 34.1067 7.91512 31.6015 5.25112ZM33.406 16.2439C33.0769 19.7534 32.0002 21.8534 30.6963 23.5899C29.3944 25.3246 27.7843 26.6885 26.4736 28.5859C26.2452 28.9214 26.0779 29.2929 25.934 29.688C25.7204 30.2796 25.568 30.9247 25.4636 31.5252C25.3599 32.1275 25.305 32.6735 25.3044 33.0945C25.3044 33.6945 25.3044 34.6018 25.3044 35.5063H12.1675V31.5404C12.1675 30.9769 11.9045 30.4405 11.4439 30.0641C11.042 29.7348 10.5234 29.5569 9.99191 29.5569C9.953 29.5569 9.91536 29.5608 9.87708 29.5631L8.0658 29.4314L7.97688 29.4404L7.82197 29.4483C7.49228 29.4483 7.17127 29.3396 6.91995 29.1404C6.62981 28.9101 6.45811 28.5792 6.44701 28.2274L6.44646 28.1948L5.67723 21.4292L2.79413 20.7042L2.75956 20.698C2.6719 20.6822 2.5985 20.6293 2.56077 20.555L2.53541 20.4481L2.57125 20.3231L6.29264 14.3314L6.30068 13.3954V13.3829C6.29886 13.3019 6.29823 13.222 6.29823 13.1421C6.30446 9.7492 7.75085 7.06315 10.0907 5.16912C12.4329 3.27954 15.7038 2.19994 19.3505 2.19994C19.6981 2.19994 20.0488 2.21006 20.4019 2.22981L20.4605 1.36691L20.4025 2.22981C24.769 2.48027 27.9831 4.06869 30.1617 6.37697C32.3367 8.68697 33.4646 11.7551 33.4646 14.9703C33.4646 15.3929 33.4455 15.8178 33.406 16.2439Z" fill="#4F80FF"/>
</svg>
