<svg width="36" height="35" viewBox="0 0 36 35" fill="none" xmlns="http://www.w3.org/2000/svg">
<rect x="0.5" width="35" height="35" rx="17.5" fill="#E2E2E2"/>
<path d="M25.2917 14.9481H24.9272V11.6668C24.9272 9.82965 24.1974 8.06772 22.8983 6.76864C21.5992 5.46957 19.8373 4.73975 18.0001 4.73975C16.1629 4.73975 14.401 5.46957 13.1019 6.76864C11.8028 8.06772 11.073 9.82965 11.073 11.6668V14.9481H10.7084C9.64478 14.9481 8.62472 15.3706 7.87263 16.1228C7.12052 16.8748 6.698 17.8949 6.698 18.9585V26.2502C6.698 27.3137 7.12052 28.3338 7.87263 29.0859C8.62472 29.8381 9.64478 30.2606 10.7084 30.2606H25.2917C26.3553 30.2606 27.3754 29.8381 28.1275 29.0859C28.8797 28.3338 29.3022 27.3137 29.3022 26.2502V18.9585C29.3022 17.8949 28.8797 16.8748 28.1275 16.1228C27.3754 15.3706 26.3553 14.9481 25.2917 14.9481ZM13.2605 11.6668C13.2605 10.4098 13.7598 9.20429 14.6487 8.31543C15.5375 7.42659 16.743 6.92725 18.0001 6.92725C19.2572 6.92725 20.4626 7.42659 21.3515 8.31543C22.2403 9.20429 22.7397 10.4098 22.7397 11.6668V14.9481H13.2605V11.6668ZM27.1147 26.2502C27.1147 26.7336 26.9226 27.1973 26.5808 27.5392C26.2389 27.881 25.7752 28.0731 25.2917 28.0731H10.7084C10.2249 28.0731 9.76128 27.881 9.41942 27.5392C9.07756 27.1973 8.8855 26.7336 8.8855 26.2502V18.9585C8.8855 18.4751 9.07756 18.0113 9.41942 17.6695C9.76128 17.3276 10.2249 17.1356 10.7084 17.1356H25.2917C25.7752 17.1356 26.2389 17.3276 26.5808 17.6695C26.9226 18.0113 27.1147 18.4751 27.1147 18.9585V26.2502Z" fill="black"/>
</svg>
