<svg width="36" height="35" viewBox="0 0 36 35" fill="none" xmlns="http://www.w3.org/2000/svg">
<rect x="0.5" width="35" height="35" rx="17.5" fill="#E2E2E2"/>
<path d="M29.6307 11.6408C29.0387 11.2932 28.3274 11.2849 27.7297 11.6192C26.4429 12.338 25.335 13.1282 24.437 13.9677C24.1692 14.2176 24.0156 14.5792 24.0156 14.9597V29.2578C24.0156 29.7101 24.3836 30.0781 24.8359 30.0781H29.7578C30.2101 30.0781 30.5781 29.7101 30.5781 29.2578V13.2932C30.5781 12.6067 30.224 11.989 29.6307 11.6408ZM30.0312 29.2578C30.0312 29.4087 29.9087 29.5312 29.7578 29.5312H24.8359C24.6851 29.5312 24.5625 29.4087 24.5625 29.2578V14.9598C24.5625 14.7304 24.6527 14.5143 24.8103 14.3672C25.6763 13.5578 26.7481 12.7939 27.9962 12.0967C28.205 11.9802 28.4331 11.922 28.6608 11.922C28.8993 11.922 29.1378 11.9856 29.3541 12.1124C29.7781 12.3616 30.0312 12.8029 30.0312 13.2932V29.2578ZM20.3338 17.1096C19.7416 16.7619 19.0308 16.7536 18.4329 17.0879C17.1461 17.8068 16.0381 18.5969 15.1401 19.4364C14.8723 19.6863 14.7188 20.0479 14.7188 20.4285V29.2578C14.7188 29.7101 15.0867 30.0781 15.5391 30.0781H20.4609C20.9133 30.0781 21.2812 29.7101 21.2812 29.2578V18.7619C21.2812 18.0754 20.9271 17.4578 20.3338 17.1096ZM20.7344 29.2578C20.7344 29.4087 20.6118 29.5312 20.4609 29.5312H15.5391C15.3882 29.5312 15.2656 29.4087 15.2656 29.2578V20.4285C15.2656 20.1992 15.3559 19.9831 15.5134 19.836C16.3794 19.0266 17.4513 18.2626 18.6993 17.5654C18.9081 17.449 19.1362 17.3908 19.364 17.3908C19.6024 17.3908 19.8409 17.4543 20.0572 17.5812C20.4812 17.8303 20.7344 18.2717 20.7344 18.762V29.2578ZM11.037 22.0315C10.4444 21.6838 9.7336 21.6755 9.13598 22.0098C7.84918 22.7287 6.74127 23.5188 5.84324 24.3583C5.57544 24.6082 5.42188 24.9698 5.42188 25.3503V29.2578C5.42188 29.7101 5.78987 30.0781 6.24219 30.0781H11.1641C11.6164 30.0781 11.9844 29.7101 11.9844 29.2578V23.6838C11.9844 22.9972 11.6303 22.3797 11.037 22.0315ZM11.4375 29.2578C11.4375 29.4087 11.3149 29.5312 11.1641 29.5312H6.24219C6.0913 29.5312 5.96875 29.4087 5.96875 29.2578V25.3504C5.96875 25.121 6.05898 24.905 6.21654 24.7578C7.08252 23.9485 8.15439 23.1845 9.40247 22.4873C9.61127 22.3708 9.83931 22.3127 10.0671 22.3127C10.3055 22.3127 10.544 22.3762 10.7603 22.503C11.1844 22.7522 11.4375 23.1936 11.4375 23.6838V29.2578ZM24.3895 11.028C24.5889 9.16442 24.6106 7.3454 24.4538 5.62149C24.4175 5.21828 24.0733 4.92001 23.6653 4.92587C21.6399 4.99209 19.7747 5.33761 18.1215 5.95339C17.8393 6.05861 17.6422 6.29863 17.5941 6.59558C17.5466 6.8909 17.6571 7.17932 17.8905 7.36651L18.7963 8.09468C18.2534 8.90083 15.8851 12.0064 10.6855 13.6612C10.0694 13.8569 9.40963 13.9984 8.7717 14.1351C6.96795 14.5215 5.26454 14.8868 5.43598 16.4113C5.47339 16.748 5.67393 17.2231 6.41839 17.5734C7.06808 17.8791 8.00559 18.034 9.08282 18.034C11.3333 18.034 14.1929 17.3582 16.307 15.9702C19.6465 13.7787 21.7397 11.5992 22.3376 10.942L23.104 11.556C23.3307 11.7383 23.6402 11.7808 23.9091 11.6689C24.1791 11.5565 24.3588 11.3169 24.3895 11.028ZM23.8458 10.9698C23.8325 11.0956 23.7387 11.1477 23.6989 11.1642C23.6124 11.2 23.5181 11.1872 23.4458 11.1292L22.4767 10.3527C22.3611 10.2598 22.1926 10.2766 22.097 10.3896C22.0756 10.415 19.9122 12.9504 16.0069 15.5131C13.0744 17.4389 8.49165 17.9449 6.6513 17.0787C6.23743 16.884 6.01152 16.6392 5.97974 16.3505C5.86895 15.3678 7.01208 15.0717 8.88633 14.6699C9.53705 14.5305 10.21 14.3863 10.8514 14.1825C17.0467 12.2108 19.3034 8.3341 19.3966 8.16987C19.4626 8.05317 19.4345 7.90579 19.3298 7.82195L18.2329 6.9405C18.1207 6.85026 18.1266 6.73033 18.134 6.68308C18.1418 6.63474 18.1749 6.51727 18.3122 6.46625C19.9101 5.87103 21.7171 5.53673 23.6829 5.47236H23.6896C23.8015 5.47236 23.8992 5.55997 23.9091 5.67076C24.0627 7.35891 24.0415 9.142 23.8458 10.9698Z" fill="black"/>
</svg>
