<svg width="23" height="17" viewBox="0 0 23 17" fill="none" xmlns="http://www.w3.org/2000/svg">
<path fill-rule="evenodd" clip-rule="evenodd" d="M19.7917 0.333496C21.5176 0.333496 22.9167 1.73261 22.9167 3.4585V13.8752C22.9167 15.6011 21.5176 17.0002 19.7917 17.0002H3.125C1.39911 17.0002 0 15.6011 0 13.8752V3.4585C0 1.73261 1.39911 0.333496 3.125 0.333496H19.7917ZM19.0134 2.41683H3.90331L10.8129 7.87173C11.1914 8.17058 11.7253 8.17058 12.1039 7.87173L19.0134 2.41683ZM2.08333 3.63433V13.8752C2.08333 14.4505 2.54971 14.9168 3.125 14.9168H19.7917C20.367 14.9168 20.8333 14.4505 20.8333 13.8752V3.63435L13.3947 9.50693C12.2594 10.4033 10.6573 10.4033 9.52198 9.50693L2.08333 3.63433Z" fill="white"/>
</svg>
