<svg width="36" height="35" viewBox="0 0 36 35" fill="none" xmlns="http://www.w3.org/2000/svg">
<rect x="0.5" width="35" height="35" rx="17.5" fill="#E2E2E2"/>
<path d="M19.0391 34.0704C28.1993 33.5235 35.1719 25.6211 34.5704 16.461C34.0235 7.30083 26.1211 0.32817 16.961 0.929733C7.80083 1.47661 0.82817 9.37895 1.42973 18.5391C1.97661 27.6719 9.87895 34.6172 19.0391 34.0704ZM14.2813 14.0821C13.8165 13.1797 15.129 12.6875 15.8125 12.004C16.6602 11.1016 18.4922 9.62504 18.2735 9.07817C18.0547 8.47661 16.1954 6.83598 15.1836 7.21879C14.9649 7.21879 13.7891 8.53129 13.5157 8.75004C13.5157 8.2852 13.4336 8.03911 13.4336 7.60161C13.4336 7.30083 12.8321 7.05473 12.8868 6.83598C12.9415 6.31645 14.1993 5.35942 14.5 4.97661C14.254 4.81254 13.4063 4.21098 13.1875 4.29301C12.6407 4.59379 11.9571 4.81254 11.3555 5.05864C11.3555 4.83989 11.3008 4.62114 11.2735 4.51176C12.4219 3.9102 13.6524 3.50004 14.9375 3.19926L16.086 3.63676L16.9336 4.53911L17.7813 5.33208C17.7813 5.33208 18.3008 5.55083 18.4922 5.55083C18.7383 5.49614 19.5586 4.45708 19.5586 4.45708L19.2305 3.66411L19.1758 2.95317C21.4727 3.17192 23.5782 3.85551 25.4922 5.0313C25.1915 5.08598 24.7813 5.11333 24.3985 5.25004C24.2344 5.16801 23.3321 5.33208 23.3868 5.71489C23.4415 6.01567 25 7.27348 25.6836 8.39458C26.3672 9.54301 28.2813 10.254 28.6094 11.5391C28.9375 13.0157 28.3907 14.9297 28.6641 16.7071C28.9102 18.4571 30.8243 20.2618 30.8243 20.2618C30.8243 20.2618 31.6719 20.5079 32.3555 20.3438C31.836 22.9415 30.6875 25.3204 28.9102 27.3438C26.9141 29.586 24.3985 31.1719 21.5547 31.8555C21.8829 30.8438 22.5665 29.8594 23.2227 29.3125C23.7696 28.793 24.4532 27.918 24.6993 27.2344C24.9454 26.5235 25.3008 25.9219 25.711 25.2383C26.2305 24.336 24.1524 23.0782 23.4688 22.8594C21.9375 22.3125 20.7891 21.5469 19.4766 20.6993C18.4922 20.0977 15.5665 21.4649 14.4727 21.0274C12.9961 20.4805 12.4766 20.0157 11.1641 19.168C9.79692 18.2657 10.1797 16.379 10.0977 14.9571C11.1094 14.9571 12.504 14.5196 13.2422 15.2852C13.461 15.5313 14.254 16.5977 14.7188 16.1875C15.211 15.668 14.4454 14.3829 14.2813 14.0821ZM6.13286 8.85942C6.21489 9.57036 6.5977 10.1446 6.5977 10.6368C6.5977 12.6329 6.43364 13.8086 7.69145 15.3946C8.21098 15.9961 8.37504 16.9258 8.59379 17.6915C8.83989 18.4024 9.68755 18.7579 10.3438 19.168C11.5743 19.961 12.75 21 14.0899 21.711C14.9375 22.1758 15.4571 22.4219 15.3204 23.461C15.1563 24.254 15.1563 24.7735 14.7735 25.5391C14.6915 25.7852 15.375 27.1524 15.5665 27.3165C16.25 27.8633 16.879 28.4102 17.6172 28.9297C18.711 29.7227 17.6172 30.9258 17.1797 32.1563C13.9532 31.9375 10.8633 30.6797 8.3477 28.4922C5.42192 25.8946 3.67192 22.2852 3.42583 18.4297C3.15239 14.9024 4.00004 11.6211 6.13286 8.85942Z" fill="black"/>
</svg>
