<svg width="53" height="56" viewBox="0 0 53 56" fill="none" xmlns="http://www.w3.org/2000/svg">
<path d="M45.313 18.6082C45.1545 18.4328 44.9766 18.2722 44.7812 18.1297L44.5808 18.084C44.4759 18.0341 44.3923 17.9521 44.3377 17.8531C44.0247 17.6915 43.697 17.5873 43.3636 17.5352C43.0757 17.4915 42.8735 17.1992 42.9153 16.8821C42.9541 16.5652 43.2234 16.344 43.5113 16.3876C43.841 16.4408 44.1714 16.5323 44.4884 16.6684C44.5399 16.4153 44.5691 16.1568 44.5691 15.8963C44.5681 15.3262 44.4456 14.7508 44.185 14.2095C43.8875 13.5906 43.451 13.1077 42.9405 12.7782C42.4932 12.4889 41.9876 12.3166 41.4684 12.2762C41.4306 12.7941 41.3178 13.3099 41.1214 13.8097C41.0046 14.1031 40.6946 14.2383 40.4253 14.1117C40.1569 13.9862 40.0325 13.6459 40.1482 13.3523C40.3367 12.8707 40.4253 12.3751 40.4273 11.8837L40.4204 11.6742C40.3845 10.9936 40.1783 10.3364 39.8273 9.77593C39.4763 9.21642 38.9843 8.75813 38.3719 8.46779C37.9324 8.26252 37.4773 8.16579 37.0291 8.16579C36.1705 8.16579 35.3392 8.52748 34.7112 9.16541C34.8288 9.60254 34.8959 10.063 34.8959 10.5417C34.8959 10.8608 34.6567 11.1202 34.365 11.1202C34.0733 11.1202 33.8351 10.8608 33.8351 10.5417C33.8351 10.0726 33.7564 9.62805 33.6125 9.21439H33.6135C33.3694 8.51785 32.9377 7.91805 32.3845 7.49476C31.8332 7.0716 31.1653 6.82373 30.438 6.82373C29.8071 6.82373 29.2188 7.01204 28.7132 7.33738C28.3087 7.59895 27.9597 7.9521 27.6856 8.36685C28.2213 9.16975 28.5382 10.162 28.5382 11.2319C28.5382 11.5509 28.3 11.8094 28.0073 11.8094C27.7156 11.8094 27.4774 11.5509 27.4774 11.2319C27.4774 10.2919 27.1614 9.43675 26.6355 8.78268C26.0113 8.00312 25.1003 7.51511 24.0793 7.51511C23.3706 7.51511 22.7182 7.75009 22.1727 8.15425C21.6291 8.55842 21.1965 9.13054 20.9407 9.80265C20.7755 10.2418 20.6811 10.7258 20.6811 11.2319C20.6811 11.5509 20.4449 11.8094 20.1523 11.8094C19.8595 11.8094 19.6234 11.5509 19.6234 11.2319C19.6234 10.7618 19.6856 10.3088 19.7984 9.877C19.3997 9.70049 18.9681 9.60268 18.5248 9.60268C18.273 9.60268 18.0202 9.63456 17.7634 9.69737C17.0089 9.88772 16.378 10.3323 15.9161 10.9341C15.5835 11.3682 15.3462 11.8838 15.2228 12.4379C16.3167 12.4591 17.4095 12.9217 18.2535 13.8257C18.4616 14.0501 18.4655 14.416 18.2613 14.6435C18.0562 14.8732 17.7216 14.8754 17.5126 14.653C16.8496 13.9459 15.9949 13.5917 15.1354 13.5906C14.9818 13.5906 14.8281 13.6023 14.6745 13.6236H14.6726H14.6716C13.9512 13.733 13.257 14.0924 12.7056 14.7073C12.0581 15.4304 11.7372 16.3642 11.7363 17.3065C11.7363 17.8436 11.8432 18.3848 12.0571 18.8826C12.2233 19.2749 12.4567 19.6408 12.7581 19.962V19.9629C13.0985 20.3288 13.4913 20.5989 13.9104 20.7754C14.1815 20.8914 14.3187 21.2264 14.2118 21.5241C14.1059 21.824 13.8005 21.973 13.5274 21.8559C12.98 21.6241 12.4628 21.269 12.0154 20.7893C11.82 20.5787 11.6459 20.3543 11.4915 20.1162C11.0918 20.7426 10.875 21.4922 10.875 22.2559C10.875 22.8473 11.0044 23.4438 11.2775 24.0043C11.5847 24.6317 12.0292 25.121 12.5522 25.4549C12.9654 25.7197 13.4273 25.8867 13.9037 25.9452L13.9027 25.91C13.9027 25.6037 13.929 25.3039 13.9766 25.0124C14.0311 24.6977 14.3082 24.4923 14.5941 24.5487C14.8818 24.6072 15.0715 24.9092 15.0199 25.2239C14.9819 25.4462 14.9616 25.677 14.9616 25.9099L14.9703 26.1791L14.9984 26.4503V26.4534L14.9994 26.4587C15.2425 28.2752 16.6776 29.6331 18.3577 29.6331L18.6018 29.6225H18.6028C19.3475 29.5641 20.0164 29.2492 20.5473 28.759C20.9197 28.4155 21.2249 27.9849 21.434 27.4997C21.5575 27.2094 21.8754 27.0862 22.1389 27.2232C22.4034 27.3594 22.5163 27.7039 22.3917 27.9933C22.1652 28.5155 21.856 28.9865 21.4846 29.3874C21.6927 30.0872 22.0835 30.6881 22.594 31.1347C23.1775 31.6463 23.9134 31.9483 24.7087 31.9483L24.9538 31.9378H24.9548C25.4584 31.8984 25.9241 31.74 26.3374 31.4932C26.2732 31.1604 26.2363 30.8201 26.2363 30.4755C26.2363 29.765 26.3812 29.0408 26.6806 28.3601C26.808 28.072 27.1239 27.9517 27.3865 28.0911C27.65 28.2282 27.7618 28.575 27.6345 28.8632C27.404 29.3854 27.2961 29.9342 27.2961 30.4755C27.2961 30.854 27.3496 31.2316 27.4526 31.5899H27.4536C27.7249 32.5354 28.3375 33.3618 29.2193 33.8253C29.6957 34.0774 30.1974 34.1955 30.6913 34.1955C31.476 34.1955 32.2431 33.8955 32.8518 33.3521L32.8538 33.351C33.2233 33.0181 33.5325 32.597 33.755 32.0939L33.756 32.0917C33.9631 31.6218 34.072 31.1294 34.0904 30.638C34.104 30.3189 34.35 30.0701 34.6436 30.085C34.9353 30.0989 35.1608 30.3689 35.1482 30.688C35.1229 31.3324 34.98 31.9832 34.7087 32.5968V32.5958C34.4909 33.0925 34.2041 33.5296 33.8678 33.9028C34.4919 34.8833 35.5303 35.5013 36.6533 35.5002C36.8614 35.5002 37.0733 35.479 37.2863 35.4343C38.1039 35.2663 38.7933 34.7929 39.2834 34.1421C39.7725 33.4901 40.0574 32.6617 40.0574 31.7874L40.0564 31.7089V31.7045C40.0525 31.5078 40.0341 31.3016 39.9991 31.094C39.9145 30.6017 39.7423 30.1549 39.5062 29.7604C39.164 29.4307 38.7838 29.0001 38.4251 28.5214C38.0429 28.011 37.691 27.4526 37.4547 26.8901C37.2992 26.5136 37.1883 26.1329 37.1863 25.732C37.1863 25.5544 37.2087 25.3705 37.2699 25.194C37.3292 25.0142 37.4265 24.8441 37.5567 24.7037C37.7628 24.4793 38.0972 24.4793 38.3044 24.7037C38.5105 24.9312 38.5105 25.2991 38.3044 25.5236L38.2644 25.5928L38.2441 25.7322C38.2421 25.8779 38.2976 26.1247 38.4171 26.4085C38.5357 26.6915 38.7117 27.0094 38.9189 27.3231C39.3292 27.9516 39.861 28.5685 40.2615 28.9449L40.316 28.996L40.3559 29.0609C40.6836 29.5947 40.9238 30.2094 41.0394 30.8805V30.8816L41.0773 31.1686L41.2358 31.1761C41.9068 31.175 42.5824 30.9581 43.1765 30.5018C43.6491 30.1381 44.0088 29.6712 44.2519 29.1469C44.4959 28.6216 44.6233 28.0409 44.6233 27.456C44.6233 26.9083 44.5104 26.3584 44.2849 25.847C44.0758 25.9203 43.8638 25.9788 43.649 26.0193C43.3612 26.0756 43.0879 25.8617 43.0365 25.5471C42.9877 25.2313 43.1823 24.9335 43.4701 24.8781C44.4073 24.7016 45.2659 24.104 45.7968 23.1447C46.1331 22.5417 46.2917 21.878 46.2917 21.2219C46.2917 20.2551 45.9503 19.3098 45.3145 18.6089L45.313 18.6082ZM21.0576 14.1905C21.5632 13.5365 22.2341 13.0716 22.9555 12.7675C23.6798 12.4633 24.4557 12.3176 25.2005 12.3176C25.9249 12.3187 26.621 12.4527 27.2121 12.7527C27.4766 12.8844 27.5923 13.2301 27.4697 13.5204C27.3482 13.8098 27.0341 13.9374 26.7668 13.8035C26.3585 13.594 25.7994 13.4738 25.2005 13.4738C24.584 13.4738 23.9269 13.598 23.3366 13.8492C22.7465 14.0969 22.2282 14.467 21.8636 14.9371C21.6769 15.1817 21.3415 15.2136 21.1179 15.0052C20.8952 14.7989 20.8671 14.4341 21.0576 14.1905ZM33.106 27.8817C32.4906 27.8817 31.9324 27.8052 31.423 27.6766C31.4366 27.836 31.4463 28.0136 31.4463 28.2019C31.4463 28.5795 31.4084 29.0111 31.3005 29.4642C31.1916 29.9161 31.0079 30.3915 30.7181 30.8478C30.5519 31.1115 30.2222 31.1764 29.9821 30.9944C29.741 30.8125 29.6827 30.4531 29.8469 30.1883C30.0607 29.8511 30.1939 29.5065 30.2757 29.1674C30.3574 28.8282 30.3876 28.4984 30.3876 28.2018C30.3885 27.7923 30.3311 27.4552 30.2903 27.2627C30.0317 27.135 29.7934 26.9915 29.5709 26.8308C28.6842 26.2034 28.0912 25.375 27.7187 24.5868C27.4689 24.0583 27.3171 23.5479 27.2354 23.1044C27.1888 22.8512 27.1655 22.6216 27.1655 22.413C27.1655 22.0919 27.4028 21.8323 27.6954 21.8323C27.988 21.8323 28.2252 22.0919 28.2252 22.413C28.2243 22.5809 28.2574 22.8629 28.341 23.1831C28.4246 23.5042 28.5578 23.869 28.7503 24.2359C29.1363 24.9739 29.7498 25.713 30.6968 26.1928C31.3297 26.5139 32.1172 26.7223 33.106 26.7223C33.3986 26.7223 33.6359 26.9818 33.6359 27.3019C33.6359 27.6223 33.3988 27.8817 33.106 27.8817ZM36.8338 23.6533C36.7249 23.9491 36.4167 24.0937 36.1444 23.9755C35.8732 23.8564 35.7429 23.5214 35.8498 23.2247V23.2236L35.8528 23.2151L35.8684 23.1641L35.9229 22.9557C35.9628 22.7728 36.0036 22.5143 36.0036 22.2304L36.0027 22.1899C35.2754 22.4601 34.6007 22.5812 33.9794 22.5812C33.0402 22.5834 32.2274 22.3016 31.5661 21.8741C30.904 21.4467 30.3888 20.8809 30.0037 20.3055C29.5662 19.6536 28.9925 19.0687 28.3353 18.655C27.6761 18.2402 26.9391 17.9935 26.1564 17.9913C25.471 17.9935 24.7418 18.1806 23.9805 18.6379C23.2581 19.0718 22.7933 19.6492 22.4929 20.2831C22.1945 20.918 22.0681 21.6113 22.069 22.2431C22.067 22.828 22.1799 23.3575 22.3266 23.6915C22.452 23.9808 22.3383 24.3254 22.0748 24.4626C21.8114 24.5999 21.4953 24.4753 21.3699 24.1872C21.1395 23.6532 21.0112 22.981 21.0092 22.2431C21.0102 21.5093 21.1434 20.7073 21.4711 19.9407C20.814 20.1035 20.2034 20.1758 19.6472 20.1758C19.3468 20.1758 19.0637 20.1545 18.7944 20.1162L18.6962 20.3332L18.6952 20.3352L18.6874 20.3439L18.6592 20.3832L18.5464 20.5512C18.4501 20.7023 18.3169 20.9224 18.172 21.2031C17.8833 21.7593 17.5527 22.5442 17.3922 23.4256C17.3349 23.7394 17.0568 23.9447 16.7699 23.8808C16.4832 23.8181 16.2964 23.514 16.3558 23.1981C16.5463 22.1526 16.9227 21.2636 17.2503 20.6308C17.4214 20.3033 17.578 20.0439 17.6926 19.8673C17.261 19.7259 16.8876 19.5525 16.5824 19.3759C15.8853 18.9706 15.5225 18.5644 15.4915 18.5314C15.2892 18.3007 15.295 17.9348 15.505 17.7125C15.716 17.4914 16.0495 17.4978 16.2527 17.7253L16.2586 17.7317L16.2897 17.7646L16.4414 17.9038C16.5793 18.0229 16.7924 18.1868 17.0772 18.3526C17.6488 18.6823 18.5026 19.0163 19.6469 19.0185C20.4509 19.0185 21.3989 18.8505 22.5005 18.3868C22.7796 18.1029 23.1013 17.8435 23.4708 17.6222C24.377 17.0788 25.2899 16.8342 26.1562 16.8342C27.146 16.8342 28.0667 17.1491 28.864 17.6509C29.6613 18.1551 30.3371 18.8453 30.8572 19.6216C31.1732 20.0904 31.5883 20.5447 32.1027 20.8753C32.62 21.2071 33.2314 21.4231 33.9791 21.4241C34.4915 21.4241 35.069 21.3199 35.7225 21.0689C35.5631 20.7891 35.3258 20.519 34.935 20.2744C34.6802 20.1159 34.5898 19.7629 34.7336 19.4853C34.8785 19.2056 35.2004 19.1098 35.455 19.2652C36.0812 19.6513 36.5003 20.1628 36.7433 20.6977C36.9892 21.2305 37.0622 21.7707 37.0622 22.2302C37.0593 23.0323 36.8483 23.6119 36.8338 23.6533ZM36.6355 16.5589C35.3987 16.5589 34.3166 16.1941 33.4416 15.6422C33.3181 15.8294 33.1528 16.0644 32.9398 16.3196C32.4606 16.895 31.7565 17.5704 30.8145 17.9403C30.5374 18.0467 30.236 17.8915 30.1377 17.5895C30.0395 17.2873 30.1844 16.9567 30.4576 16.8503C31.1529 16.5791 31.7342 16.0464 32.1368 15.5646C32.3235 15.3444 32.4684 15.136 32.5734 14.9765C32.0512 14.4937 31.6391 13.9439 31.3562 13.3781C31.0879 12.8357 30.9322 12.2763 30.9303 11.7328C30.9303 11.4139 31.1676 11.1543 31.4602 11.1543C31.752 11.1543 31.9891 11.4139 31.9891 11.7328C31.9871 12.0253 32.0805 12.4157 32.2865 12.8251C32.4897 13.2355 32.7989 13.663 33.2034 14.046C34.0124 14.8128 35.1801 15.3998 36.6356 15.3998C36.9282 15.3998 37.1645 15.6604 37.1645 15.9804C37.1644 16.2994 36.9281 16.5589 36.6355 16.5589ZM40.8084 24.7126C40.6227 24.9572 40.2882 24.9933 40.0627 24.788C39.8372 24.5849 39.8061 24.2192 39.9908 23.9735C40.5683 23.2067 40.7813 22.4346 40.7831 21.6956C40.7851 21.0224 40.5964 20.3725 40.3009 19.8249C40.0091 19.2782 39.6058 18.8401 39.2178 18.5966C38.9572 18.4328 38.7122 18.3594 38.5177 18.3594C38.225 18.3594 37.9888 18.1011 37.9888 17.7809C37.9888 17.4609 38.2251 17.2013 38.5177 17.2013C38.8395 17.2013 39.1545 17.2875 39.4541 17.4321C39.7525 17.5747 40.0346 17.7778 40.297 18.0257C40.8211 18.5211 41.2664 19.1954 41.5464 19.9857C41.7311 20.5131 41.8439 21.0917 41.8439 21.6957C41.8449 22.6888 41.5348 23.7522 40.8084 24.7126Z" fill="#FF4DE6"/>
<path d="M8.32031 44.5669L8.33756 44.5948C8.33709 44.5939 8.33709 44.5939 8.33661 44.5931L8.32031 44.5669Z" fill="white"/>
<path d="M46.9023 7.37668C43.1508 3.37723 37.5085 0.653586 30.2789 0.255816C29.6908 0.222857 29.1056 0.206055 28.5259 0.206055C22.4455 0.206055 16.8521 2.00609 12.7517 5.31071C8.64847 8.60683 6.09352 13.4328 6.10273 19.2129C6.10273 19.3438 6.10368 19.4747 6.10639 19.6064L6.10001 20.3037L0.880836 28.707C0.600261 29.1603 0.458496 29.6661 0.458496 30.1719C0.458496 30.5939 0.556786 31.0179 0.755729 31.4129C1.17712 32.2513 2.00586 32.8542 2.98746 33.0619L2.98557 33.0694L5.38588 33.6722L6.33416 42.0114L6.34161 42.0105C6.40835 43.2255 7.00282 44.3661 8.0123 45.1665C8.90967 45.8791 10.0551 46.2658 11.2331 46.2658C11.3524 46.2658 11.4701 46.2557 11.5887 46.2481L14.3084 46.4448L14.4446 46.4314L14.4881 46.4296C14.5927 46.4296 14.69 46.4634 14.765 46.5251L14.7695 46.5294C14.8557 46.6002 14.9067 46.7041 14.9067 46.8105V55.3531H40.3014V54.0563C40.3014 54.0563 40.3014 50.5433 40.3014 49.1417C40.2986 48.5777 40.4218 47.4625 40.6644 46.3868C40.7848 45.8474 40.9338 45.3095 41.1025 44.8444C41.2692 44.38 41.4619 43.9848 41.6229 43.7543C43.312 41.2721 45.7003 39.2357 47.8875 36.3558C50.0721 33.4785 51.9343 29.7458 52.4445 24.0823C52.5093 23.3722 52.5418 22.6621 52.5418 21.9555C52.5418 16.5863 50.6601 11.3727 46.9023 7.37668ZM49.6091 23.8659C49.1155 29.1301 47.5004 32.2801 45.5446 34.8848C43.5916 37.487 41.1766 39.5327 39.2105 42.3789C38.8679 42.8821 38.6169 43.4394 38.4012 44.032C38.0808 44.9194 37.8521 45.887 37.6955 46.7879C37.54 47.6912 37.4576 48.5102 37.4567 49.1417C37.4567 50.0418 37.4567 51.4028 37.4567 52.7595H17.7514V46.8106C17.7514 45.9654 17.3569 45.1608 16.666 44.5961C16.0631 44.1021 15.2853 43.8353 14.488 43.8353C14.4296 43.8353 14.3732 43.8412 14.3157 43.8446L11.5988 43.6471L11.4654 43.6605L11.2331 43.6724C10.7385 43.6724 10.257 43.5094 9.88005 43.2105C9.44483 42.8652 9.18729 42.3688 9.17063 41.8411L9.16981 41.7922L8.01596 31.6438L3.69132 30.5563L3.63946 30.5471C3.50797 30.5234 3.39787 30.444 3.34128 30.3325L3.30324 30.1721L3.35699 29.9847L8.93908 20.9971L8.95114 19.593V19.5744C8.94842 19.4529 8.94747 19.3329 8.94747 19.2132C8.95681 14.1238 11.1264 10.0947 14.6361 7.25368C18.1495 4.41931 23.0558 2.79991 28.5259 2.79991C29.0472 2.79991 29.5733 2.81509 30.103 2.84471L30.1909 1.55037L30.1038 2.84471C36.6537 3.2204 41.4747 5.60303 44.7427 9.06545C48.0051 12.5305 49.6971 17.1326 49.6971 21.9554C49.6971 22.5893 49.6684 23.2267 49.6091 23.8659Z" fill="white"/>
</svg>
