<svg width="19" height="19" viewBox="0 0 19 19" fill="none" xmlns="http://www.w3.org/2000/svg">
<path fill-rule="evenodd" clip-rule="evenodd" d="M1.83068 1.30949C3.58075 -0.44058 6.53407 -0.307538 7.75261 1.87592L8.42865 3.08731C9.22438 4.51316 8.88532 6.3122 7.72042 7.49134C7.7049 7.5126 7.62261 7.63232 7.6124 7.84149C7.59938 8.1085 7.69417 8.72599 8.65084 9.68266C9.60719 10.639 10.2246 10.7341 10.4918 10.7211C10.7011 10.7109 10.8209 10.6287 10.8422 10.6131C12.0214 9.44829 13.8204 9.10912 15.2463 9.90485L16.4576 10.581C18.641 11.7995 18.7741 14.7528 17.0241 16.5029C16.0879 17.4389 14.8432 18.2707 13.3805 18.3262C11.2129 18.4084 7.61365 17.8486 4.04933 14.2842C0.484962 10.7198 -0.074809 7.12064 0.00735764 4.953C0.062816 3.49031 0.894576 2.2456 1.83068 1.30949ZM6.38823 2.63738C5.7642 1.51931 4.08744 1.26244 2.93553 2.41435C2.12788 3.222 1.60282 4.11347 1.56874 5.0122C1.50021 6.81985 1.9465 9.97172 5.15418 13.1793C8.36188 16.387 11.5136 16.8333 13.3214 16.7647C14.2201 16.7307 15.1116 16.2057 15.9192 15.398C17.071 14.2461 16.8142 12.5693 15.6961 11.9454L14.4848 11.2693C13.7313 10.8487 12.6727 10.9922 11.9297 11.7353C11.8567 11.8082 11.3921 12.2417 10.5677 12.2818C9.72365 12.3229 8.70209 11.9436 7.54604 10.7876C6.38959 9.6311 6.01042 8.60922 6.05177 7.76509C6.09219 6.94059 6.52573 6.47642 6.59823 6.40387C7.34125 5.66083 7.4848 4.60232 7.06427 3.84876L6.38823 2.63738Z" fill="white"/>
</svg>
