<svg width="23" height="17" viewBox="0 0 23 17" fill="none" xmlns="http://www.w3.org/2000/svg">
<path fill-rule="evenodd" clip-rule="evenodd" d="M19.7917 0.333252C21.5176 0.333252 22.9167 1.73237 22.9167 3.45825V13.8749C22.9167 15.6009 21.5176 16.9999 19.7917 16.9999H3.125C1.39911 16.9999 0 15.6009 0 13.8749V3.45825C0 1.73237 1.39911 0.333252 3.125 0.333252H19.7917ZM19.0134 2.41659H3.90331L10.8129 7.87148C11.1914 8.17034 11.7253 8.17034 12.1039 7.87148L19.0134 2.41659ZM2.08333 3.63408V13.8749C2.08333 14.4502 2.54971 14.9166 3.125 14.9166H19.7917C20.367 14.9166 20.8333 14.4502 20.8333 13.8749V3.63411L13.3947 9.50669C12.2594 10.403 10.6573 10.403 9.52198 9.50669L2.08333 3.63408Z" fill="white"/>
</svg>
